<mxfile host="app.diagrams.net" agent="Mozilla/5.0 (Windows NT 10.0; Win64; x64) AppleWebKit/537.36 (KHTML, like Gecko) Chrome/140.0.0.0 Safari/537.36" version="28.2.4">
  <diagram id="7gcUSTIZ7YSJ5vT40chW" name="Page-1">
    <mxGraphModel dx="783" dy="395" grid="1" gridSize="10" guides="1" tooltips="1" connect="1" arrows="1" fold="1" page="1" pageScale="1" pageWidth="1169" pageHeight="827" math="0" shadow="0">
      <root>
        <mxCell id="0" />
        <mxCell id="1" parent="0" />
        <mxCell id="62H-jpsfVxYuQIRcN-9s-11" value="" style="rounded=1;whiteSpace=wrap;html=1;" parent="1" vertex="1">
          <mxGeometry x="445" y="346.5" width="60" height="60" as="geometry" />
        </mxCell>
        <mxCell id="62H-jpsfVxYuQIRcN-9s-47" style="edgeStyle=orthogonalEdgeStyle;rounded=0;orthogonalLoop=1;jettySize=auto;html=1;entryX=1;entryY=0.75;entryDx=0;entryDy=0;" parent="1" source="62H-jpsfVxYuQIRcN-9s-2" target="62H-jpsfVxYuQIRcN-9s-46" edge="1">
          <mxGeometry relative="1" as="geometry" />
        </mxCell>
        <mxCell id="62H-jpsfVxYuQIRcN-9s-2" value="" style="shape=image;verticalLabelPosition=bottom;labelBackgroundColor=#ffffff;verticalAlign=top;aspect=fixed;imageAspect=0;image=data:image/svg+xml,PHN2ZyB4bWxuczpjYz0iaHR0cDovL2NyZWF0aXZlY29tbW9ucy5vcmcvbnMjIiB4bWxuczpkYz0iaHR0cDovL3B1cmwub3JnL2RjL2VsZW1lbnRzLzEuMS8iIHhtbG5zOmlua3NjYXBlPSJodHRwOi8vd3d3Lmlua3NjYXBlLm9yZy9uYW1lc3BhY2VzL2lua3NjYXBlIiB4bWxuczpyZGY9Imh0dHA6Ly93d3cudzMub3JnLzE5OTkvMDIvMjItcmRmLXN5bnRheC1ucyMiIHhtbG5zOnNvZGlwb2RpPSJodHRwOi8vc29kaXBvZGkuc291cmNlZm9yZ2UubmV0L0RURC9zb2RpcG9kaS0wLmR0ZCIgeG1sbnM6c3ZnPSJodHRwOi8vd3d3LnczLm9yZy8yMDAwL3N2ZyIgeG1sbnM9Imh0dHA6Ly93d3cudzMub3JnLzIwMDAvc3ZnIiB4bWxuczp4bGluaz0iaHR0cDovL3d3dy53My5vcmcvMTk5OS94bGluayIgdmVyc2lvbj0iMS4xIiBpZD0ic3ZnNjEyNDMiIGlua3NjYXBlOnZlcnNpb249IjAuOTIuMyAoMjQwNTU0NiwgMjAxOC0wMy0xMSkiIHNvZGlwb2RpOmRvY25hbWU9ImF6dXJlX3BvcnRhbF92aXJ0dWFsX21hY2hpbmVzX2NsYXNzaWMuc3ZnIiB4PSIwcHgiIHk9IjBweCIgdmlld0JveD0iMCAwIDQyLjIyIDM5LjMiIHN0eWxlPSJlbmFibGUtYmFja2dyb3VuZDpuZXcgMCAwIDQyLjIyIDM5LjM7IiB4bWw6c3BhY2U9InByZXNlcnZlIj4mI3hhOzxzb2RpcG9kaTpuYW1lZHZpZXcgYm9yZGVyY29sb3I9IiM2NjY2NjYiIGJvcmRlcm9wYWNpdHk9IjEiIGZpdC1tYXJnaW4tYm90dG9tPSIwIiBmaXQtbWFyZ2luLWxlZnQ9IjAiIGZpdC1tYXJnaW4tcmlnaHQ9IjAiIGZpdC1tYXJnaW4tdG9wPSIwIiBncmlkdG9sZXJhbmNlPSIxMCIgZ3VpZGV0b2xlcmFuY2U9IjEwIiBpZD0ibmFtZWR2aWV3NjEyNDUiIGlua3NjYXBlOmN1cnJlbnQtbGF5ZXI9InN2ZzYxMjQzIiBpbmtzY2FwZTpjeD0iMjYuNDM1ODMxIiBpbmtzY2FwZTpjeT0iMjEuNTU5MjQ1IiBpbmtzY2FwZTpwYWdlb3BhY2l0eT0iMCIgaW5rc2NhcGU6cGFnZXNoYWRvdz0iMiIgaW5rc2NhcGU6d2luZG93LWhlaWdodD0iMTAxNyIgaW5rc2NhcGU6d2luZG93LW1heGltaXplZD0iMSIgaW5rc2NhcGU6d2luZG93LXdpZHRoPSIxOTIwIiBpbmtzY2FwZTp3aW5kb3cteD0iLTgiIGlua3NjYXBlOndpbmRvdy15PSItOCIgaW5rc2NhcGU6em9vbT0iMTEuNzAwODM1IiBvYmplY3R0b2xlcmFuY2U9IjEwIiBwYWdlY29sb3I9IiNmZmZmZmYiIHNob3dncmlkPSJmYWxzZSI+JiN4YTsJPC9zb2RpcG9kaTpuYW1lZHZpZXc+JiN4YTs8ZyBpZD0iZzYxMjQxIiB0cmFuc2Zvcm09InRyYW5zbGF0ZSgwLC0wLjAwMTc4KSI+JiN4YTsJPHRpdGxlIGlkPSJ0aXRsZTYxMjA2Ij5QYWdlLTE8L3RpdGxlPiYjeGE7CTxnIGlkPSJncm91cDQzMzQtMSI+JiN4YTsJCTx0aXRsZSBpZD0idGl0bGU2MTIwOCI+QXp1cmUgUG9ydGFsIC0gVmlydHVhbCBNYWNoaW5lcyAoQ2xhc3NpYyk8L3RpdGxlPiYjeGE7CQk8ZyBpZD0ic2hhcGU0MzM1LTIiIHRyYW5zZm9ybT0idHJhbnNsYXRlKDIuOTU1MjEsLTEwLjMwOTQpIj4mI3hhOwkJCTx0aXRsZSBpZD0idGl0bGU2MTIxMCI+U2hlZXQuNDMzNTwvdGl0bGU+JiN4YTsJCQk8cGF0aCBpZD0icGF0aDYxMjEyIiBpbmtzY2FwZTpjb25uZWN0b3ItY3VydmF0dXJlPSIwIiBzdHlsZT0iZmlsbDojRkZGRkZGOyIgZD0iTTM3LjMzLDEyLjk3VjM5LjNIMFYxMi45N2wzNy4zOS0wLjA4ICAgICBMMzcuMzMsMTIuOTd6Ii8+JiN4YTsJCTwvZz4mI3hhOwkJPGcgaWQ9InNoYXBlNDMzNi00IiB0cmFuc2Zvcm09InRyYW5zbGF0ZSg3LjE3NjkzKSI+JiN4YTsJCQk8dGl0bGUgaWQ9InRpdGxlNjEyMTUiPlNoZWV0LjQzMzY8L3RpdGxlPiYjeGE7CQkJPHBhdGggaWQ9InBhdGg2MTIxNyIgaW5rc2NhcGU6Y29ubmVjdG9yLWN1cnZhdHVyZT0iMCIgc3R5bGU9ImZpbGw6IzU5QjREOTsiIGQ9Ik0yMC4yNiwzMS4yN2MtMS4wNSwwLTEuMDUsMC0xLjA1LDAgICAgIGMtOS45NywwLTkuOTcsMC05Ljk3LDBjLTAuNTYsMC0wLjU2LDAtMC41NiwwYzEuMzcsNC44My0wLjUsNS41NC04LjY4LDUuNTRjMCwyLjQ5LDAsMi40OSwwLDIuNDljMTAuNDgsMCwxMC40OCwwLDEwLjQ4LDAgICAgIGM3LjU5LDAsNy41OSwwLDcuNTksMGM5Ljc5LDAsOS43OSwwLDkuNzksMGMwLTIuNDksMC0yLjQ5LDAtMi40OUMxOS43MSwzNi44MSwxOC44OSwzNi4xLDIwLjI2LDMxLjI3eiIvPiYjeGE7CQk8L2c+JiN4YTsJCTxnIGlkPSJzaGFwZTQzMzctNiIgdHJhbnNmb3JtPSJ0cmFuc2xhdGUoMCwtOC4wMjgyMikiPiYjeGE7CQkJPHRpdGxlIGlkPSJ0aXRsZTYxMjIwIj5TaGVldC40MzM3PC90aXRsZT4mI3hhOwkJCTxwYXRoIGlkPSJwYXRoNjEyMjIiIGlua3NjYXBlOmNvbm5lY3Rvci1jdXJ2YXR1cmU9IjAiIHN0eWxlPSJmaWxsOiM1OUI0RDk7IiBkPSJNMzkuNjMsOC4wM2MtMzcuMjYsMC0zNy4yNiwwLTM3LjI2LDAgICAgIEMxLjA2LDguMDMsMCw5LjE5LDAsMTAuNTFjMCwyNi40MSwwLDI2LjQxLDAsMjYuNDFjMCwxLjMyLDEuMDYsMi4zOCwyLjM3LDIuMzhjMzcuMjYsMCwzNy4yNiwwLDM3LjI2LDAgICAgIGMxLjI5LDAsMi41OS0xLjA2LDIuNTktMi4zOGMwLTI2LjQxLDAtMjYuNDEsMC0yNi40MUM0Mi4yMiw5LjE5LDQwLjkyLDguMDMsMzkuNjMsOC4wM3ogTTM5LDExLjMzYzAsMjQuNjksMCwyNC42OSwwLDI0LjY5ICAgICBjLTM1Ljc1LDAtMzUuNzUsMC0zNS43NSwwYzAtMjQuNjksMC0yNC42OSwwLTI0LjY5YzM1LjgzLTAuMDgsMzUuODMtMC4wOCwzNS44My0wLjA4TDM5LDExLjMzeiIvPiYjeGE7CQk8L2c+JiN4YTsJCTxnIGlkPSJzaGFwZTQzMzgtOCIgdHJhbnNmb3JtPSJ0cmFuc2xhdGUoMTMuNTA5NSwtMjQuMDg0NykiPiYjeGE7CQkJPHRpdGxlIGlkPSJ0aXRsZTYxMjI1Ij5TaGVldC40MzM4PC90aXRsZT4mI3hhOwkJCTxwYXRoIGlkPSJwYXRoNjEyMjciIGlua3NjYXBlOmNvbm5lY3Rvci1jdXJ2YXR1cmU9IjAiIHN0eWxlPSJmaWxsOiMwMDcyQzY7IiBkPSJNNy42LDMwLjQyYy0wLjA4LDAtMC4wOCwwLTAuMTYsMCAgICAgYy03LjMzLDQuMjUtNy4zMyw0LjI1LTcuMzMsNC4yNUMwLDM0LjY3LDAsMzQuNzUsMCwzNC44M3MwLDAuMTYsMC4xMSwwLjI0YzcuNDEsNC4yMyw3LjQxLDQuMjMsNy40MSw0LjIzSDcuNiAgICAgYzAuMSwwLDAuMSwwLDAuMTgsMGM3LjM0LTQuMjMsNy4zNC00LjIzLDcuMzQtNC4yM2MwLjA4LDAsMC4wOC0wLjA4LDAuMDgtMC4xNmMwLTAuMDgsMC0wLjE2LTAuMDgtMC4yNCAgICAgQzcuNywzMC40Miw3LjcsMzAuNDIsNy43LDMwLjQySDcuNnoiLz4mI3hhOwkJPC9nPiYjeGE7CQk8ZyBpZD0ic2hhcGU0MzM5LTEwIiB0cmFuc2Zvcm09InRyYW5zbGF0ZSgxMi4yNDMsLTEzLjUyMTIpIj4mI3hhOwkJCTx0aXRsZSBpZD0idGl0bGU2MTIzMCI+U2hlZXQuNDMzOTwvdGl0bGU+JiN4YTsJCQk8cGF0aCBpZD0icGF0aDYxMjMyIiBpbmtzY2FwZTpjb25uZWN0b3ItY3VydmF0dXJlPSIwIiBzdHlsZT0iZmlsbDojMDA3MkM2OyIgZD0iTTAuMjYsMjUuNzdjLTAuMDgsMC0wLjA4LDAtMC4xNSwwICAgICBDMCwyNS43NywwLDI1Ljg4LDAsMjUuOTZjMCw4Ljc0LDAsOC43NCwwLDguNzRjMCwwLjA4LDAsMC4xNiwwLjExLDAuMjRjNy41OSw0LjI4LDcuNTksNC4yOCw3LjU5LDQuMjggICAgIGMwLDAuMDgsMC4wOCwwLjA4LDAuMDgsMC4wOGMwLjA4LDAsMC4wOCwwLDAuMTYtMC4wOGMwLDAsMC4wOC0wLjA4LDAuMDgtMC4xNmMwLTguNzQsMC04Ljc0LDAtOC43NGMwLTAuMDgtMC4wOC0wLjE2LTAuMDgtMC4xNiAgICAgYy03LjYtNC4zOS03LjYtNC4zOS03LjYtNC4zOVMwLjI2LDI1Ljc3LDAuMjYsMjUuNzd6Ii8+JiN4YTsJCTwvZz4mI3hhOwkJPGcgaWQ9InNoYXBlNDM0MC0xMiIgdHJhbnNmb3JtPSJ0cmFuc2xhdGUoMjEuOTUzLC0xMy41MjEyKSI+JiN4YTsJCQk8dGl0bGUgaWQ9InRpdGxlNjEyMzUiPlNoZWV0LjQzNDA8L3RpdGxlPiYjeGE7CQkJPHBhdGggaWQ9InBhdGg2MTIzNyIgaW5rc2NhcGU6Y29ubmVjdG9yLWN1cnZhdHVyZT0iMCIgc3R5bGU9ImZpbGw6IzAwNzJDNjsiIGQ9Ik03LjM5LDI1Ljc3YzAsMC0wLjA4LDAtMC4wOCwwLjExICAgICBjLTcuMTUsNC4yOC03LjE1LDQuMjgtNy4xNSw0LjI4QzAuMDgsMzAuMjQsMCwzMC4zMiwwLDMwLjRjMCw4LjY2LDAsOC42NiwwLDguNjZjMCwwLjA4LDAuMDgsMC4xNiwwLjE2LDAuMTYgICAgIGMwLDAuMDgsMCwwLjA4LDAuMDgsMC4wOGMwLDAsMC4wOCwwLDAuMDgtMC4wOGM3LjItNC4yOCw3LjItNC4yOCw3LjItNC4yOEM3LjYsMzQuODYsNy42LDM0Ljc4LDcuNiwzNC43YzAtOC42NiwwLTguNjYsMC04LjY2ICAgICBjMC0wLjA4LDAtMC4xNi0wLjA4LTAuMTZDNy40NywyNS43Nyw3LjQ3LDI1Ljc3LDcuMzksMjUuNzd6Ii8+JiN4YTsJCTwvZz4mI3hhOwk8L2c+JiN4YTs8L2c+JiN4YTs8L3N2Zz4=;" parent="1" vertex="1">
          <mxGeometry x="649" y="600.0000000000009" width="42" height="39" as="geometry" />
        </mxCell>
        <mxCell id="62H-jpsfVxYuQIRcN-9s-27" style="edgeStyle=orthogonalEdgeStyle;rounded=0;orthogonalLoop=1;jettySize=auto;html=1;entryX=0;entryY=0.5;entryDx=0;entryDy=0;" parent="1" source="62H-jpsfVxYuQIRcN-9s-3" target="62H-jpsfVxYuQIRcN-9s-18" edge="1">
          <mxGeometry relative="1" as="geometry" />
        </mxCell>
        <mxCell id="62H-jpsfVxYuQIRcN-9s-3" value="" style="outlineConnect=0;dashed=0;verticalLabelPosition=bottom;verticalAlign=top;align=center;html=1;shape=mxgraph.aws3.management_console;fillColor=#D2D3D3;gradientColor=none;" parent="1" vertex="1">
          <mxGeometry x="238" y="344.5" width="63" height="63" as="geometry" />
        </mxCell>
        <mxCell id="62H-jpsfVxYuQIRcN-9s-30" style="edgeStyle=orthogonalEdgeStyle;rounded=0;orthogonalLoop=1;jettySize=auto;html=1;entryX=0;entryY=0.5;entryDx=0;entryDy=0;" parent="1" source="62H-jpsfVxYuQIRcN-9s-4" target="62H-jpsfVxYuQIRcN-9s-12" edge="1">
          <mxGeometry relative="1" as="geometry" />
        </mxCell>
        <mxCell id="62H-jpsfVxYuQIRcN-9s-4" value="" style="shape=image;verticalLabelPosition=bottom;labelBackgroundColor=#ffffff;verticalAlign=top;aspect=fixed;imageAspect=0;image=data:image/svg+xml,PHN2ZyB4bWxuczpkYz0iaHR0cDovL3B1cmwub3JnL2RjL2VsZW1lbnRzLzEuMS8iIHhtbG5zOmNjPSJodHRwOi8vY3JlYXRpdmVjb21tb25zLm9yZy9ucyMiIHhtbG5zOnJkZj0iaHR0cDovL3d3dy53My5vcmcvMTk5OS8wMi8yMi1yZGYtc3ludGF4LW5zIyIgeG1sbnM6c3ZnPSJodHRwOi8vd3d3LnczLm9yZy8yMDAwL3N2ZyIgeG1sbnM9Imh0dHA6Ly93d3cudzMub3JnLzIwMDAvc3ZnIiB4bWxuczpzb2RpcG9kaT0iaHR0cDovL3NvZGlwb2RpLnNvdXJjZWZvcmdlLm5ldC9EVEQvc29kaXBvZGktMC5kdGQiIHhtbG5zOmlua3NjYXBlPSJodHRwOi8vd3d3Lmlua3NjYXBlLm9yZy9uYW1lc3BhY2VzL2lua3NjYXBlIiB2ZXJzaW9uPSIxLjEiIGlkPSJzdmc2NjA5NiIgaW5rc2NhcGU6dmVyc2lvbj0iMC45Mi4zICgyNDA1NTQ2LCAyMDE4LTAzLTExKSIgc29kaXBvZGk6ZG9jbmFtZT0iYXp1cmVfdm1fc2NhbGVfc2V0LnN2ZyIgeD0iMHB4IiB5PSIwcHgiIHZpZXdCb3g9IjAgMCAzNy41IDM3LjUiIHhtbDpzcGFjZT0icHJlc2VydmUiIHdpZHRoPSIzNy41IiBoZWlnaHQ9IjM3LjUiPjxtZXRhZGF0YSBpZD0ibWV0YWRhdGEyMDk1NyI+PHJkZjpSREY+PGNjOldvcmsgcmRmOmFib3V0PSIiPjxkYzpmb3JtYXQ+aW1hZ2Uvc3ZnK3htbDwvZGM6Zm9ybWF0PjxkYzp0eXBlIHJkZjpyZXNvdXJjZT0iaHR0cDovL3B1cmwub3JnL2RjL2RjbWl0eXBlL1N0aWxsSW1hZ2UiLz48ZGM6dGl0bGUvPjwvY2M6V29yaz48L3JkZjpSREY+PC9tZXRhZGF0YT48ZGVmcyBpZD0iZGVmczIwOTU1Ii8+JiN4YTs8ZmlsdGVyIGlkPSJmaWx0ZXJfMiI+JiN4YTsJPGZlR2F1c3NpYW5CbHVyIGlkPSJmZUdhdXNzaWFuQmx1cjY1OTMzIiBzdGREZXZpYXRpb249IjIiLz4mI3hhOzwvZmlsdGVyPiYjeGE7PHNvZGlwb2RpOm5hbWVkdmlldyBib3JkZXJjb2xvcj0iIzY2NjY2NiIgYm9yZGVyb3BhY2l0eT0iMSIgZml0LW1hcmdpbi1ib3R0b209IjAiIGZpdC1tYXJnaW4tbGVmdD0iMCIgZml0LW1hcmdpbi1yaWdodD0iMCIgZml0LW1hcmdpbi10b3A9IjAiIGdyaWR0b2xlcmFuY2U9IjEwIiBndWlkZXRvbGVyYW5jZT0iMTAiIGlkPSJuYW1lZHZpZXc2NjA5OCIgaW5rc2NhcGU6Y3VycmVudC1sYXllcj0ic3ZnNjYwOTYiIGlua3NjYXBlOmN4PSItNS43MTM2Mjk5IiBpbmtzY2FwZTpjeT0iOC42NTU1MTUzIiBpbmtzY2FwZTpwYWdlb3BhY2l0eT0iMCIgaW5rc2NhcGU6cGFnZXNoYWRvdz0iMiIgaW5rc2NhcGU6d2luZG93LWhlaWdodD0iMTAxNyIgaW5rc2NhcGU6d2luZG93LW1heGltaXplZD0iMSIgaW5rc2NhcGU6d2luZG93LXdpZHRoPSIxOTIwIiBpbmtzY2FwZTp3aW5kb3cteD0iLTgiIGlua3NjYXBlOndpbmRvdy15PSItOCIgaW5rc2NhcGU6em9vbT0iMTAuNTcwMDIyIiBvYmplY3R0b2xlcmFuY2U9IjEwIiBwYWdlY29sb3I9IiNmZmZmZmYiIHNob3dncmlkPSJmYWxzZSI+JiN4YTsJPC9zb2RpcG9kaTpuYW1lZHZpZXc+JiN4YTsmI3hhOzxwYXRoIGlkPSJwYXRoNjU5NDYiIGlua3NjYXBlOmNvbm5lY3Rvci1jdXJ2YXR1cmU9IjAiIHN0eWxlPSJmaWxsOiNhMGExYTIiIGQ9Ik0gMjYuNzksMCBIIDEuNTUgQyAwLjY5LDAgMCwwLjc3IDAsMS42MiBWIDE5LjIgYyAwLDAuODUgMC42OSwxLjYxIDEuNTUsMS42MSBoIDI1LjI0IGMgMC44NiwwIDEuNzIsLTAuNzYgMS43MiwtMS42MSBWIDEuNjIgQyAyOC41MSwwLjc2IDI3LjY1LDAgMjYuNzksMCBaIi8+JiN4YTsmI3hhOzxwYXRoIGlkPSJwYXRoNjU5NTQiIGlua3NjYXBlOmNvbm5lY3Rvci1jdXJ2YXR1cmU9IjAiIHN0eWxlPSJmaWxsOiNmZmZmZmY7ZmlsbC1vcGFjaXR5OjAuMiIgZD0iTSAyNi44MSwwIEMgMjYuOCwwIDI2LjgsMCAyNi43OSwwIEggMS41NSBDIDAuNjksMCAwLDAuNzcgMCwxLjYyIFYgMTkuMiBjIDAsMC44NSAwLjY5LDEuNjEgMS41NSwxLjYxIGggMC42IHoiLz4mI3hhOyYjeGE7PHBhdGggaWQ9InBhdGg2NTk2MiIgaW5rc2NhcGU6Y29ubmVjdG9yLWN1cnZhdHVyZT0iMCIgc3R5bGU9ImZpbGw6IzU5YjRkOSIgZD0iTSAyNi4zNSwxOC42MiBIIDIuMTYgViAyLjE5IEwgMjYuMzUsMi4xNiBaIi8+JiN4YTsmI3hhOzxwYXRoIGlkPSJwYXRoNjU5NzAiIGlua3NjYXBlOmNvbm5lY3Rvci1jdXJ2YXR1cmU9IjAiIHN0eWxlPSJmaWxsOiNiOGQ0MzIiIGQ9Im0gMTQuNTUsMS4yIGMgMCwwLjIyIC0wLjE4LDAuNCAtMC40MSwwLjQgLTAuMjIsMCAtMC40LC0wLjE4IC0wLjQsLTAuNCAwLC0wLjIzIDAuMTgsLTAuNDEgMC40LC0wLjQxIDAuMjMsMCAwLjQxLDAuMTggMC40MSwwLjQxIHoiLz4mI3hhOyYjeGE7PHBhdGggaWQ9InBhdGg2NTk3OCIgaW5rc2NhcGU6Y29ubmVjdG9yLWN1cnZhdHVyZT0iMCIgc3R5bGU9ImZpbGw6I2ZmZmZmZiIgZD0iTSAxNC41Nyw5LjkxIEMgMTQuNTUsOS45MSAxNC41Miw5LjkgMTQuNSw5Ljg5IEwgOS40Nyw2Ljk5IEMgOS40Myw2Ljk3IDkuNCw2LjkyIDkuNCw2Ljg2IDkuNCw2LjgxIDkuNDMsNi43NiA5LjQ3LDYuNzMgbCA1LC0yLjg3IGMgMC4wNCwtMC4wMyAwLjEsLTAuMDMgMC4xNSwwIGwgNS4wMiwyLjg5IGMgMC4wNCwwLjAzIDAuMDcsMC4wOCAwLjA3LDAuMTMgMCwwLjA2IC0wLjAyLDAuMTEgLTAuMDcsMC4xMyBMIDE0LjY1LDkuODkgQyAxNC42Myw5LjkgMTQuNiw5LjkxIDE0LjU3LDkuOTEgWiIvPiYjeGE7JiN4YTs8cGF0aCBpZD0icGF0aDY1OTg2IiBpbmtzY2FwZTpjb25uZWN0b3ItY3VydmF0dXJlPSIwIiBzdHlsZT0iZmlsbDojYTBhMWEyIiBkPSJNIDMxLjI1LDUuNTkgSCA2LjAxIGMgLTAuODYsMCAtMS41NSwwLjc3IC0xLjU1LDEuNjIgdiAxNy41OCBjIDAsMC44NSAwLjY5LDEuNjEgMS41NSwxLjYxIGggMjUuMjQgYyAwLjg2LDAgMS43MiwtMC43NiAxLjcyLC0xLjYxIFYgNy4yMSBjIDAsLTAuODYgLTAuODYsLTEuNjIgLTEuNzIsLTEuNjIgeiIvPiYjeGE7JiN4YTs8cGF0aCBpZD0icGF0aDY1OTk0IiBpbmtzY2FwZTpjb25uZWN0b3ItY3VydmF0dXJlPSIwIiBzdHlsZT0iZmlsbDojZmZmZmZmO2ZpbGwtb3BhY2l0eTowLjIiIGQ9Im0gMzEuMjcsNS41OSBjIC0wLjAxLDAgLTAuMDEsMCAtMC4wMiwwIEggNi4wMSBjIC0wLjg2LDAgLTEuNTUsMC43NyAtMS41NSwxLjYyIHYgMTcuNTggYyAwLDAuODUgMC42OSwxLjYxIDEuNTUsMS42MSBoIDAuNiB6Ii8+JiN4YTsmI3hhOzxwYXRoIGlkPSJwYXRoNjYwMDIiIGlua3NjYXBlOmNvbm5lY3Rvci1jdXJ2YXR1cmU9IjAiIHN0eWxlPSJmaWxsOiM1OWI0ZDkiIGQ9Ik0gMzAuODEsMjQuMjEgSCA2LjYyIFYgNy43OCBMIDMwLjgxLDcuNzUgYyAwLDAgMCwxNi40NiAwLDE2LjQ2IHoiLz4mI3hhOyYjeGE7PHBhdGggaWQ9InBhdGg2NjAxMCIgaW5rc2NhcGU6Y29ubmVjdG9yLWN1cnZhdHVyZT0iMCIgc3R5bGU9ImZpbGw6I2I4ZDQzMiIgZD0ibSAxOS4wMSw2Ljc5IGMgMCwwLjIyIC0wLjE4LDAuNCAtMC40MSwwLjQgLTAuMjIsMCAtMC40LC0wLjE4IC0wLjQsLTAuNCAwLC0wLjIzIDAuMTgsLTAuNDEgMC40LC0wLjQxIDAuMjMsMCAwLjQxLDAuMTggMC40MSwwLjQxIHoiLz4mI3hhOyYjeGE7PHBhdGggaWQ9InBhdGg2NjAxOCIgaW5rc2NhcGU6Y29ubmVjdG9yLWN1cnZhdHVyZT0iMCIgc3R5bGU9ImZpbGw6I2ZmZmZmZiIgZD0ibSAxOS4wMywxNS41IGMgLTAuMDIsMCAtMC4wNSwtMC4wMSAtMC4wNywtMC4wMiBsIC01LjAzLC0yLjkgYyAtMC4wNCwtMC4wMiAtMC4wNywtMC4wNyAtMC4wNywtMC4xMyAwLC0wLjA1IDAuMDMsLTAuMSAwLjA3LC0wLjEzIGwgNSwtMi44NyBjIDAuMDQsLTAuMDMgMC4xLC0wLjAzIDAuMTUsMCBsIDUuMDIsMi44OSBjIDAuMDQsMC4wMyAwLjA3LDAuMDggMC4wNywwLjEzIDAsMC4wNiAtMC4wMiwwLjExIC0wLjA3LDAuMTMgbCAtNC45OSwyLjg4IGMgLTAuMDMsMC4wMSAtMC4wNSwwLjAyIC0wLjA4LDAuMDIgeiIvPiYjeGE7JiN4YTs8cGF0aCBpZD0icGF0aDY2MDI2IiBpbmtzY2FwZTpjb25uZWN0b3ItY3VydmF0dXJlPSIwIiBzdHlsZT0iZmlsbDojN2E3YTdhIiBkPSJNIDI3LjQ4LDMyLjAyIEggMjYuOCAyMC4wNyAxOS43MiBjIDAuOTMsMy4yOSAtMC4zMiwzLjc2IC01LjgsMy43NiB2IDEuNzIgaCA2Ljk3IDUuMDkgNi41OCB2IC0xLjcyIGMgLTUuNDgsMCAtNi4wMiwtMC40NyAtNS4wOCwtMy43NiB6Ii8+JiN4YTsmI3hhOzxwYXRoIGlkPSJwYXRoNjYwMzQiIGlua3NjYXBlOmNvbm5lY3Rvci1jdXJ2YXR1cmU9IjAiIHN0eWxlPSJmaWxsOiNhMGExYTIiIGQ9Ik0gMzUuNzgsMTEuMjIgSCAxMC41NCBjIC0wLjg2LDAgLTEuNTUsMC43NyAtMS41NSwxLjYyIHYgMTcuNTggYyAwLDAuODUgMC42OSwxLjYxIDEuNTUsMS42MSBoIDI1LjI0IGMgMC44NiwwIDEuNzIsLTAuNzYgMS43MiwtMS42MSBWIDEyLjg0IGMgMCwtMC44NSAtMC44NiwtMS42MiAtMS43MiwtMS42MiB6Ii8+JiN4YTsmI3hhOzxwYXRoIGlkPSJwYXRoNjYwNDIiIGlua3NjYXBlOmNvbm5lY3Rvci1jdXJ2YXR1cmU9IjAiIHN0eWxlPSJmaWxsOiNmZmZmZmY7ZmlsbC1vcGFjaXR5OjAuMiIgZD0ibSAzNS43OSwxMS4yMiBjIC0wLjAxLDAgLTAuMDEsMCAtMC4wMiwwIEggMTAuNTMgYyAtMC44NiwwIC0xLjU1LDAuNzcgLTEuNTUsMS42MiB2IDE3LjU4IGMgMCwwLjg1IDAuNjksMS42MSAxLjU1LDEuNjEgaCAwLjYgeiIvPiYjeGE7JiN4YTs8cGF0aCBpZD0icGF0aDY2MDUwIiBpbmtzY2FwZTpjb25uZWN0b3ItY3VydmF0dXJlPSIwIiBzdHlsZT0iZmlsbDojNTliNGQ5IiBkPSJNIDM1LjM0LDI5Ljg0IEggMTEuMTUgViAxMy40MSBsIDI0LjE5LC0wLjAzIHoiLz4mI3hhOyYjeGE7PHJlY3QgaWQ9InJlY3Q2NjA1OCIgeD0iMTMuOTE5OTk4IiB5PSIzNS43Nzk5OTkiIHN0eWxlPSJmaWxsOiNhMGExYTIiIHdpZHRoPSIxOC42Mzk5OTkiIGhlaWdodD0iMS43MiIvPiYjeGE7JiN4YTs8cGF0aCBpZD0icGF0aDY2MDY2IiBpbmtzY2FwZTpjb25uZWN0b3ItY3VydmF0dXJlPSIwIiBzdHlsZT0iZmlsbDojYjhkNDMyIiBkPSJtIDIzLjU0LDEyLjQxIGMgMCwwLjIyIC0wLjE4LDAuNCAtMC40MSwwLjQgLTAuMjIsMCAtMC40LC0wLjE4IC0wLjQsLTAuNCAwLC0wLjIzIDAuMTgsLTAuNDEgMC40LC0wLjQxIDAuMjMsMCAwLjQxLDAuMTggMC40MSwwLjQxIHoiLz4mI3hhOyYjeGE7PHBhdGggaWQ9InBhdGg2NjA3NCIgaW5rc2NhcGU6Y29ubmVjdG9yLWN1cnZhdHVyZT0iMCIgc3R5bGU9ImZpbGw6I2ZmZmZmZiIgZD0ibSAyMy41NSwyMS4xMiBjIC0wLjAyLDAgLTAuMDUsLTAuMDEgLTAuMDcsLTAuMDIgbCAtNS4wMywtMi45IGMgLTAuMDQsLTAuMDIgLTAuMDcsLTAuMDcgLTAuMDcsLTAuMTMgMCwtMC4wNSAwLjAzLC0wLjEgMC4wNywtMC4xMyBsIDUsLTIuODcgYyAwLjA0LC0wLjAzIDAuMSwtMC4wMyAwLjE1LDAgbCA1LjAyLDIuODkgYyAwLjA0LDAuMDMgMC4wNywwLjA4IDAuMDcsMC4xMyAwLDAuMDYgLTAuMDIsMC4xMSAtMC4wNywwLjEzIGwgLTQuOTksMi44OCBjIC0wLjAyLDAuMDEgLTAuMDUsMC4wMiAtMC4wOCwwLjAyIHoiLz4mI3hhOyYjeGE7PHBhdGggaWQ9InBhdGg2NjA4MiIgaW5rc2NhcGU6Y29ubmVjdG9yLWN1cnZhdHVyZT0iMCIgc3R5bGU9ImZpbGw6I2ZmZmZmZjtmaWxsLW9wYWNpdHk6MC43IiBkPSJtIDIyLjgzLDI4LjE2IGMgLTAuMDMsMCAtMC4wNSwtMC4wMSAtMC4wOCwtMC4wMiBsIC01LC0yLjg5IEMgMTcuNywyNS4yMyAxNy42NywyNS4xOCAxNy42NywyNS4xMiB2IC01Ljc5IGMgMCwtMC4wNSAwLjAzLC0wLjEgMC4wOCwtMC4xMyAwLjA0LC0wLjAzIDAuMSwtMC4wMyAwLjE1LDAgbCA1LjAxLDIuODkgYyAwLjA0LDAuMDMgMC4wNywwLjA3IDAuMDcsMC4xMyB2IDUuNzkgYyAwLDAuMDUgLTAuMDMsMC4xIC0wLjA3LDAuMTMgLTAuMDMsMC4wMSAtMC4wNSwwLjAyIC0wLjA4LDAuMDIgeiIvPiYjeGE7JiN4YTs8cGF0aCBpZD0icGF0aDY2MDkwIiBpbmtzY2FwZTpjb25uZWN0b3ItY3VydmF0dXJlPSIwIiBzdHlsZT0iZmlsbDojZmZmZmZmO2ZpbGwtb3BhY2l0eTowLjQiIGQ9Im0gMjQuMjUsMjguMTYgYyAtMC4wMywwIC0wLjA1LC0wLjAxIC0wLjA4LC0wLjAyIC0wLjA0LC0wLjAzIC0wLjA3LC0wLjA4IC0wLjA3LC0wLjEzIHYgLTUuNzYgYyAwLC0wLjA1IDAuMDMsLTAuMSAwLjA3LC0wLjEzIGwgNS4wMSwtMi44OCBjIDAuMDUsLTAuMDMgMC4xLC0wLjAzIDAuMTUsMCAwLjA1LDAuMDMgMC4wOCwwLjA4IDAuMDgsMC4xMyB2IDUuNzUgYyAwLDAuMDYgLTAuMDMsMC4xMSAtMC4wOCwwLjE0IGwgLTUsMi44OCBjIC0wLjAzLDAuMDEgLTAuMDUsMC4wMiAtMC4wOCwwLjAyIHoiLz4mI3hhOzwvc3ZnPg==;" parent="1" vertex="1">
          <mxGeometry x="456.0000000000001" y="357.5" width="38" height="38" as="geometry" />
        </mxCell>
        <mxCell id="62H-jpsfVxYuQIRcN-9s-31" style="edgeStyle=orthogonalEdgeStyle;rounded=0;orthogonalLoop=1;jettySize=auto;html=1;exitX=1;exitY=0.5;exitDx=0;exitDy=0;entryX=0;entryY=0.5;entryDx=0;entryDy=0;" parent="1" source="62H-jpsfVxYuQIRcN-9s-12" target="62H-jpsfVxYuQIRcN-9s-14" edge="1">
          <mxGeometry relative="1" as="geometry" />
        </mxCell>
        <mxCell id="62H-jpsfVxYuQIRcN-9s-12" value="" style="rounded=1;whiteSpace=wrap;html=1;" parent="1" vertex="1">
          <mxGeometry x="600" y="346" width="60" height="60" as="geometry" />
        </mxCell>
        <mxCell id="62H-jpsfVxYuQIRcN-9s-13" value="" style="shape=image;verticalLabelPosition=bottom;labelBackgroundColor=#ffffff;verticalAlign=top;aspect=fixed;imageAspect=0;image=data:image/svg+xml,PHN2ZyB4bWxuczpkYz0iaHR0cDovL3B1cmwub3JnL2RjL2VsZW1lbnRzLzEuMS8iIHhtbG5zOmNjPSJodHRwOi8vY3JlYXRpdmVjb21tb25zLm9yZy9ucyMiIHhtbG5zOnJkZj0iaHR0cDovL3d3dy53My5vcmcvMTk5OS8wMi8yMi1yZGYtc3ludGF4LW5zIyIgeG1sbnM6c3ZnPSJodHRwOi8vd3d3LnczLm9yZy8yMDAwL3N2ZyIgeG1sbnM9Imh0dHA6Ly93d3cudzMub3JnLzIwMDAvc3ZnIiB4bWxuczpzb2RpcG9kaT0iaHR0cDovL3NvZGlwb2RpLnNvdXJjZWZvcmdlLm5ldC9EVEQvc29kaXBvZGktMC5kdGQiIHhtbG5zOmlua3NjYXBlPSJodHRwOi8vd3d3Lmlua3NjYXBlLm9yZy9uYW1lc3BhY2VzL2lua3NjYXBlIiB2ZXJzaW9uPSIxLjEiIGlkPSJzdmc2NjA5NiIgaW5rc2NhcGU6dmVyc2lvbj0iMC45Mi4zICgyNDA1NTQ2LCAyMDE4LTAzLTExKSIgc29kaXBvZGk6ZG9jbmFtZT0iYXp1cmVfdm1fc2NhbGVfc2V0LnN2ZyIgeD0iMHB4IiB5PSIwcHgiIHZpZXdCb3g9IjAgMCAzNy41IDM3LjUiIHhtbDpzcGFjZT0icHJlc2VydmUiIHdpZHRoPSIzNy41IiBoZWlnaHQ9IjM3LjUiPjxtZXRhZGF0YSBpZD0ibWV0YWRhdGEyMDk1NyI+PHJkZjpSREY+PGNjOldvcmsgcmRmOmFib3V0PSIiPjxkYzpmb3JtYXQ+aW1hZ2Uvc3ZnK3htbDwvZGM6Zm9ybWF0PjxkYzp0eXBlIHJkZjpyZXNvdXJjZT0iaHR0cDovL3B1cmwub3JnL2RjL2RjbWl0eXBlL1N0aWxsSW1hZ2UiLz48ZGM6dGl0bGUvPjwvY2M6V29yaz48L3JkZjpSREY+PC9tZXRhZGF0YT48ZGVmcyBpZD0iZGVmczIwOTU1Ii8+JiN4YTs8ZmlsdGVyIGlkPSJmaWx0ZXJfMiI+JiN4YTsJPGZlR2F1c3NpYW5CbHVyIGlkPSJmZUdhdXNzaWFuQmx1cjY1OTMzIiBzdGREZXZpYXRpb249IjIiLz4mI3hhOzwvZmlsdGVyPiYjeGE7PHNvZGlwb2RpOm5hbWVkdmlldyBib3JkZXJjb2xvcj0iIzY2NjY2NiIgYm9yZGVyb3BhY2l0eT0iMSIgZml0LW1hcmdpbi1ib3R0b209IjAiIGZpdC1tYXJnaW4tbGVmdD0iMCIgZml0LW1hcmdpbi1yaWdodD0iMCIgZml0LW1hcmdpbi10b3A9IjAiIGdyaWR0b2xlcmFuY2U9IjEwIiBndWlkZXRvbGVyYW5jZT0iMTAiIGlkPSJuYW1lZHZpZXc2NjA5OCIgaW5rc2NhcGU6Y3VycmVudC1sYXllcj0ic3ZnNjYwOTYiIGlua3NjYXBlOmN4PSItNS43MTM2Mjk5IiBpbmtzY2FwZTpjeT0iOC42NTU1MTUzIiBpbmtzY2FwZTpwYWdlb3BhY2l0eT0iMCIgaW5rc2NhcGU6cGFnZXNoYWRvdz0iMiIgaW5rc2NhcGU6d2luZG93LWhlaWdodD0iMTAxNyIgaW5rc2NhcGU6d2luZG93LW1heGltaXplZD0iMSIgaW5rc2NhcGU6d2luZG93LXdpZHRoPSIxOTIwIiBpbmtzY2FwZTp3aW5kb3cteD0iLTgiIGlua3NjYXBlOndpbmRvdy15PSItOCIgaW5rc2NhcGU6em9vbT0iMTAuNTcwMDIyIiBvYmplY3R0b2xlcmFuY2U9IjEwIiBwYWdlY29sb3I9IiNmZmZmZmYiIHNob3dncmlkPSJmYWxzZSI+JiN4YTsJPC9zb2RpcG9kaTpuYW1lZHZpZXc+JiN4YTsmI3hhOzxwYXRoIGlkPSJwYXRoNjU5NDYiIGlua3NjYXBlOmNvbm5lY3Rvci1jdXJ2YXR1cmU9IjAiIHN0eWxlPSJmaWxsOiNhMGExYTIiIGQ9Ik0gMjYuNzksMCBIIDEuNTUgQyAwLjY5LDAgMCwwLjc3IDAsMS42MiBWIDE5LjIgYyAwLDAuODUgMC42OSwxLjYxIDEuNTUsMS42MSBoIDI1LjI0IGMgMC44NiwwIDEuNzIsLTAuNzYgMS43MiwtMS42MSBWIDEuNjIgQyAyOC41MSwwLjc2IDI3LjY1LDAgMjYuNzksMCBaIi8+JiN4YTsmI3hhOzxwYXRoIGlkPSJwYXRoNjU5NTQiIGlua3NjYXBlOmNvbm5lY3Rvci1jdXJ2YXR1cmU9IjAiIHN0eWxlPSJmaWxsOiNmZmZmZmY7ZmlsbC1vcGFjaXR5OjAuMiIgZD0iTSAyNi44MSwwIEMgMjYuOCwwIDI2LjgsMCAyNi43OSwwIEggMS41NSBDIDAuNjksMCAwLDAuNzcgMCwxLjYyIFYgMTkuMiBjIDAsMC44NSAwLjY5LDEuNjEgMS41NSwxLjYxIGggMC42IHoiLz4mI3hhOyYjeGE7PHBhdGggaWQ9InBhdGg2NTk2MiIgaW5rc2NhcGU6Y29ubmVjdG9yLWN1cnZhdHVyZT0iMCIgc3R5bGU9ImZpbGw6IzU5YjRkOSIgZD0iTSAyNi4zNSwxOC42MiBIIDIuMTYgViAyLjE5IEwgMjYuMzUsMi4xNiBaIi8+JiN4YTsmI3hhOzxwYXRoIGlkPSJwYXRoNjU5NzAiIGlua3NjYXBlOmNvbm5lY3Rvci1jdXJ2YXR1cmU9IjAiIHN0eWxlPSJmaWxsOiNiOGQ0MzIiIGQ9Im0gMTQuNTUsMS4yIGMgMCwwLjIyIC0wLjE4LDAuNCAtMC40MSwwLjQgLTAuMjIsMCAtMC40LC0wLjE4IC0wLjQsLTAuNCAwLC0wLjIzIDAuMTgsLTAuNDEgMC40LC0wLjQxIDAuMjMsMCAwLjQxLDAuMTggMC40MSwwLjQxIHoiLz4mI3hhOyYjeGE7PHBhdGggaWQ9InBhdGg2NTk3OCIgaW5rc2NhcGU6Y29ubmVjdG9yLWN1cnZhdHVyZT0iMCIgc3R5bGU9ImZpbGw6I2ZmZmZmZiIgZD0iTSAxNC41Nyw5LjkxIEMgMTQuNTUsOS45MSAxNC41Miw5LjkgMTQuNSw5Ljg5IEwgOS40Nyw2Ljk5IEMgOS40Myw2Ljk3IDkuNCw2LjkyIDkuNCw2Ljg2IDkuNCw2LjgxIDkuNDMsNi43NiA5LjQ3LDYuNzMgbCA1LC0yLjg3IGMgMC4wNCwtMC4wMyAwLjEsLTAuMDMgMC4xNSwwIGwgNS4wMiwyLjg5IGMgMC4wNCwwLjAzIDAuMDcsMC4wOCAwLjA3LDAuMTMgMCwwLjA2IC0wLjAyLDAuMTEgLTAuMDcsMC4xMyBMIDE0LjY1LDkuODkgQyAxNC42Myw5LjkgMTQuNiw5LjkxIDE0LjU3LDkuOTEgWiIvPiYjeGE7JiN4YTs8cGF0aCBpZD0icGF0aDY1OTg2IiBpbmtzY2FwZTpjb25uZWN0b3ItY3VydmF0dXJlPSIwIiBzdHlsZT0iZmlsbDojYTBhMWEyIiBkPSJNIDMxLjI1LDUuNTkgSCA2LjAxIGMgLTAuODYsMCAtMS41NSwwLjc3IC0xLjU1LDEuNjIgdiAxNy41OCBjIDAsMC44NSAwLjY5LDEuNjEgMS41NSwxLjYxIGggMjUuMjQgYyAwLjg2LDAgMS43MiwtMC43NiAxLjcyLC0xLjYxIFYgNy4yMSBjIDAsLTAuODYgLTAuODYsLTEuNjIgLTEuNzIsLTEuNjIgeiIvPiYjeGE7JiN4YTs8cGF0aCBpZD0icGF0aDY1OTk0IiBpbmtzY2FwZTpjb25uZWN0b3ItY3VydmF0dXJlPSIwIiBzdHlsZT0iZmlsbDojZmZmZmZmO2ZpbGwtb3BhY2l0eTowLjIiIGQ9Im0gMzEuMjcsNS41OSBjIC0wLjAxLDAgLTAuMDEsMCAtMC4wMiwwIEggNi4wMSBjIC0wLjg2LDAgLTEuNTUsMC43NyAtMS41NSwxLjYyIHYgMTcuNTggYyAwLDAuODUgMC42OSwxLjYxIDEuNTUsMS42MSBoIDAuNiB6Ii8+JiN4YTsmI3hhOzxwYXRoIGlkPSJwYXRoNjYwMDIiIGlua3NjYXBlOmNvbm5lY3Rvci1jdXJ2YXR1cmU9IjAiIHN0eWxlPSJmaWxsOiM1OWI0ZDkiIGQ9Ik0gMzAuODEsMjQuMjEgSCA2LjYyIFYgNy43OCBMIDMwLjgxLDcuNzUgYyAwLDAgMCwxNi40NiAwLDE2LjQ2IHoiLz4mI3hhOyYjeGE7PHBhdGggaWQ9InBhdGg2NjAxMCIgaW5rc2NhcGU6Y29ubmVjdG9yLWN1cnZhdHVyZT0iMCIgc3R5bGU9ImZpbGw6I2I4ZDQzMiIgZD0ibSAxOS4wMSw2Ljc5IGMgMCwwLjIyIC0wLjE4LDAuNCAtMC40MSwwLjQgLTAuMjIsMCAtMC40LC0wLjE4IC0wLjQsLTAuNCAwLC0wLjIzIDAuMTgsLTAuNDEgMC40LC0wLjQxIDAuMjMsMCAwLjQxLDAuMTggMC40MSwwLjQxIHoiLz4mI3hhOyYjeGE7PHBhdGggaWQ9InBhdGg2NjAxOCIgaW5rc2NhcGU6Y29ubmVjdG9yLWN1cnZhdHVyZT0iMCIgc3R5bGU9ImZpbGw6I2ZmZmZmZiIgZD0ibSAxOS4wMywxNS41IGMgLTAuMDIsMCAtMC4wNSwtMC4wMSAtMC4wNywtMC4wMiBsIC01LjAzLC0yLjkgYyAtMC4wNCwtMC4wMiAtMC4wNywtMC4wNyAtMC4wNywtMC4xMyAwLC0wLjA1IDAuMDMsLTAuMSAwLjA3LC0wLjEzIGwgNSwtMi44NyBjIDAuMDQsLTAuMDMgMC4xLC0wLjAzIDAuMTUsMCBsIDUuMDIsMi44OSBjIDAuMDQsMC4wMyAwLjA3LDAuMDggMC4wNywwLjEzIDAsMC4wNiAtMC4wMiwwLjExIC0wLjA3LDAuMTMgbCAtNC45OSwyLjg4IGMgLTAuMDMsMC4wMSAtMC4wNSwwLjAyIC0wLjA4LDAuMDIgeiIvPiYjeGE7JiN4YTs8cGF0aCBpZD0icGF0aDY2MDI2IiBpbmtzY2FwZTpjb25uZWN0b3ItY3VydmF0dXJlPSIwIiBzdHlsZT0iZmlsbDojN2E3YTdhIiBkPSJNIDI3LjQ4LDMyLjAyIEggMjYuOCAyMC4wNyAxOS43MiBjIDAuOTMsMy4yOSAtMC4zMiwzLjc2IC01LjgsMy43NiB2IDEuNzIgaCA2Ljk3IDUuMDkgNi41OCB2IC0xLjcyIGMgLTUuNDgsMCAtNi4wMiwtMC40NyAtNS4wOCwtMy43NiB6Ii8+JiN4YTsmI3hhOzxwYXRoIGlkPSJwYXRoNjYwMzQiIGlua3NjYXBlOmNvbm5lY3Rvci1jdXJ2YXR1cmU9IjAiIHN0eWxlPSJmaWxsOiNhMGExYTIiIGQ9Ik0gMzUuNzgsMTEuMjIgSCAxMC41NCBjIC0wLjg2LDAgLTEuNTUsMC43NyAtMS41NSwxLjYyIHYgMTcuNTggYyAwLDAuODUgMC42OSwxLjYxIDEuNTUsMS42MSBoIDI1LjI0IGMgMC44NiwwIDEuNzIsLTAuNzYgMS43MiwtMS42MSBWIDEyLjg0IGMgMCwtMC44NSAtMC44NiwtMS42MiAtMS43MiwtMS42MiB6Ii8+JiN4YTsmI3hhOzxwYXRoIGlkPSJwYXRoNjYwNDIiIGlua3NjYXBlOmNvbm5lY3Rvci1jdXJ2YXR1cmU9IjAiIHN0eWxlPSJmaWxsOiNmZmZmZmY7ZmlsbC1vcGFjaXR5OjAuMiIgZD0ibSAzNS43OSwxMS4yMiBjIC0wLjAxLDAgLTAuMDEsMCAtMC4wMiwwIEggMTAuNTMgYyAtMC44NiwwIC0xLjU1LDAuNzcgLTEuNTUsMS42MiB2IDE3LjU4IGMgMCwwLjg1IDAuNjksMS42MSAxLjU1LDEuNjEgaCAwLjYgeiIvPiYjeGE7JiN4YTs8cGF0aCBpZD0icGF0aDY2MDUwIiBpbmtzY2FwZTpjb25uZWN0b3ItY3VydmF0dXJlPSIwIiBzdHlsZT0iZmlsbDojNTliNGQ5IiBkPSJNIDM1LjM0LDI5Ljg0IEggMTEuMTUgViAxMy40MSBsIDI0LjE5LC0wLjAzIHoiLz4mI3hhOyYjeGE7PHJlY3QgaWQ9InJlY3Q2NjA1OCIgeD0iMTMuOTE5OTk4IiB5PSIzNS43Nzk5OTkiIHN0eWxlPSJmaWxsOiNhMGExYTIiIHdpZHRoPSIxOC42Mzk5OTkiIGhlaWdodD0iMS43MiIvPiYjeGE7JiN4YTs8cGF0aCBpZD0icGF0aDY2MDY2IiBpbmtzY2FwZTpjb25uZWN0b3ItY3VydmF0dXJlPSIwIiBzdHlsZT0iZmlsbDojYjhkNDMyIiBkPSJtIDIzLjU0LDEyLjQxIGMgMCwwLjIyIC0wLjE4LDAuNCAtMC40MSwwLjQgLTAuMjIsMCAtMC40LC0wLjE4IC0wLjQsLTAuNCAwLC0wLjIzIDAuMTgsLTAuNDEgMC40LC0wLjQxIDAuMjMsMCAwLjQxLDAuMTggMC40MSwwLjQxIHoiLz4mI3hhOyYjeGE7PHBhdGggaWQ9InBhdGg2NjA3NCIgaW5rc2NhcGU6Y29ubmVjdG9yLWN1cnZhdHVyZT0iMCIgc3R5bGU9ImZpbGw6I2ZmZmZmZiIgZD0ibSAyMy41NSwyMS4xMiBjIC0wLjAyLDAgLTAuMDUsLTAuMDEgLTAuMDcsLTAuMDIgbCAtNS4wMywtMi45IGMgLTAuMDQsLTAuMDIgLTAuMDcsLTAuMDcgLTAuMDcsLTAuMTMgMCwtMC4wNSAwLjAzLC0wLjEgMC4wNywtMC4xMyBsIDUsLTIuODcgYyAwLjA0LC0wLjAzIDAuMSwtMC4wMyAwLjE1LDAgbCA1LjAyLDIuODkgYyAwLjA0LDAuMDMgMC4wNywwLjA4IDAuMDcsMC4xMyAwLDAuMDYgLTAuMDIsMC4xMSAtMC4wNywwLjEzIGwgLTQuOTksMi44OCBjIC0wLjAyLDAuMDEgLTAuMDUsMC4wMiAtMC4wOCwwLjAyIHoiLz4mI3hhOyYjeGE7PHBhdGggaWQ9InBhdGg2NjA4MiIgaW5rc2NhcGU6Y29ubmVjdG9yLWN1cnZhdHVyZT0iMCIgc3R5bGU9ImZpbGw6I2ZmZmZmZjtmaWxsLW9wYWNpdHk6MC43IiBkPSJtIDIyLjgzLDI4LjE2IGMgLTAuMDMsMCAtMC4wNSwtMC4wMSAtMC4wOCwtMC4wMiBsIC01LC0yLjg5IEMgMTcuNywyNS4yMyAxNy42NywyNS4xOCAxNy42NywyNS4xMiB2IC01Ljc5IGMgMCwtMC4wNSAwLjAzLC0wLjEgMC4wOCwtMC4xMyAwLjA0LC0wLjAzIDAuMSwtMC4wMyAwLjE1LDAgbCA1LjAxLDIuODkgYyAwLjA0LDAuMDMgMC4wNywwLjA3IDAuMDcsMC4xMyB2IDUuNzkgYyAwLDAuMDUgLTAuMDMsMC4xIC0wLjA3LDAuMTMgLTAuMDMsMC4wMSAtMC4wNSwwLjAyIC0wLjA4LDAuMDIgeiIvPiYjeGE7JiN4YTs8cGF0aCBpZD0icGF0aDY2MDkwIiBpbmtzY2FwZTpjb25uZWN0b3ItY3VydmF0dXJlPSIwIiBzdHlsZT0iZmlsbDojZmZmZmZmO2ZpbGwtb3BhY2l0eTowLjQiIGQ9Im0gMjQuMjUsMjguMTYgYyAtMC4wMywwIC0wLjA1LC0wLjAxIC0wLjA4LC0wLjAyIC0wLjA0LC0wLjAzIC0wLjA3LC0wLjA4IC0wLjA3LC0wLjEzIHYgLTUuNzYgYyAwLC0wLjA1IDAuMDMsLTAuMSAwLjA3LC0wLjEzIGwgNS4wMSwtMi44OCBjIDAuMDUsLTAuMDMgMC4xLC0wLjAzIDAuMTUsMCAwLjA1LDAuMDMgMC4wOCwwLjA4IDAuMDgsMC4xMyB2IDUuNzUgYyAwLDAuMDYgLTAuMDMsMC4xMSAtMC4wOCwwLjE0IGwgLTUsMi44OCBjIC0wLjAzLDAuMDEgLTAuMDUsMC4wMiAtMC4wOCwwLjAyIHoiLz4mI3hhOzwvc3ZnPg==;" parent="1" vertex="1">
          <mxGeometry x="611.0000000000001" y="357" width="38" height="38" as="geometry" />
        </mxCell>
        <mxCell id="62H-jpsfVxYuQIRcN-9s-32" style="edgeStyle=orthogonalEdgeStyle;rounded=0;orthogonalLoop=1;jettySize=auto;html=1;exitX=1;exitY=0.5;exitDx=0;exitDy=0;entryX=0;entryY=0.5;entryDx=0;entryDy=0;" parent="1" source="62H-jpsfVxYuQIRcN-9s-14" target="62H-jpsfVxYuQIRcN-9s-16" edge="1">
          <mxGeometry relative="1" as="geometry" />
        </mxCell>
        <mxCell id="62H-jpsfVxYuQIRcN-9s-14" value="" style="rounded=1;whiteSpace=wrap;html=1;" parent="1" vertex="1">
          <mxGeometry x="755" y="346" width="60" height="60" as="geometry" />
        </mxCell>
        <mxCell id="62H-jpsfVxYuQIRcN-9s-15" value="" style="shape=image;verticalLabelPosition=bottom;labelBackgroundColor=#ffffff;verticalAlign=top;aspect=fixed;imageAspect=0;image=data:image/svg+xml,PHN2ZyB4bWxuczpkYz0iaHR0cDovL3B1cmwub3JnL2RjL2VsZW1lbnRzLzEuMS8iIHhtbG5zOmNjPSJodHRwOi8vY3JlYXRpdmVjb21tb25zLm9yZy9ucyMiIHhtbG5zOnJkZj0iaHR0cDovL3d3dy53My5vcmcvMTk5OS8wMi8yMi1yZGYtc3ludGF4LW5zIyIgeG1sbnM6c3ZnPSJodHRwOi8vd3d3LnczLm9yZy8yMDAwL3N2ZyIgeG1sbnM9Imh0dHA6Ly93d3cudzMub3JnLzIwMDAvc3ZnIiB4bWxuczpzb2RpcG9kaT0iaHR0cDovL3NvZGlwb2RpLnNvdXJjZWZvcmdlLm5ldC9EVEQvc29kaXBvZGktMC5kdGQiIHhtbG5zOmlua3NjYXBlPSJodHRwOi8vd3d3Lmlua3NjYXBlLm9yZy9uYW1lc3BhY2VzL2lua3NjYXBlIiB2ZXJzaW9uPSIxLjEiIGlkPSJzdmc2NjA5NiIgaW5rc2NhcGU6dmVyc2lvbj0iMC45Mi4zICgyNDA1NTQ2LCAyMDE4LTAzLTExKSIgc29kaXBvZGk6ZG9jbmFtZT0iYXp1cmVfdm1fc2NhbGVfc2V0LnN2ZyIgeD0iMHB4IiB5PSIwcHgiIHZpZXdCb3g9IjAgMCAzNy41IDM3LjUiIHhtbDpzcGFjZT0icHJlc2VydmUiIHdpZHRoPSIzNy41IiBoZWlnaHQ9IjM3LjUiPjxtZXRhZGF0YSBpZD0ibWV0YWRhdGEyMDk1NyI+PHJkZjpSREY+PGNjOldvcmsgcmRmOmFib3V0PSIiPjxkYzpmb3JtYXQ+aW1hZ2Uvc3ZnK3htbDwvZGM6Zm9ybWF0PjxkYzp0eXBlIHJkZjpyZXNvdXJjZT0iaHR0cDovL3B1cmwub3JnL2RjL2RjbWl0eXBlL1N0aWxsSW1hZ2UiLz48ZGM6dGl0bGUvPjwvY2M6V29yaz48L3JkZjpSREY+PC9tZXRhZGF0YT48ZGVmcyBpZD0iZGVmczIwOTU1Ii8+JiN4YTs8ZmlsdGVyIGlkPSJmaWx0ZXJfMiI+JiN4YTsJPGZlR2F1c3NpYW5CbHVyIGlkPSJmZUdhdXNzaWFuQmx1cjY1OTMzIiBzdGREZXZpYXRpb249IjIiLz4mI3hhOzwvZmlsdGVyPiYjeGE7PHNvZGlwb2RpOm5hbWVkdmlldyBib3JkZXJjb2xvcj0iIzY2NjY2NiIgYm9yZGVyb3BhY2l0eT0iMSIgZml0LW1hcmdpbi1ib3R0b209IjAiIGZpdC1tYXJnaW4tbGVmdD0iMCIgZml0LW1hcmdpbi1yaWdodD0iMCIgZml0LW1hcmdpbi10b3A9IjAiIGdyaWR0b2xlcmFuY2U9IjEwIiBndWlkZXRvbGVyYW5jZT0iMTAiIGlkPSJuYW1lZHZpZXc2NjA5OCIgaW5rc2NhcGU6Y3VycmVudC1sYXllcj0ic3ZnNjYwOTYiIGlua3NjYXBlOmN4PSItNS43MTM2Mjk5IiBpbmtzY2FwZTpjeT0iOC42NTU1MTUzIiBpbmtzY2FwZTpwYWdlb3BhY2l0eT0iMCIgaW5rc2NhcGU6cGFnZXNoYWRvdz0iMiIgaW5rc2NhcGU6d2luZG93LWhlaWdodD0iMTAxNyIgaW5rc2NhcGU6d2luZG93LW1heGltaXplZD0iMSIgaW5rc2NhcGU6d2luZG93LXdpZHRoPSIxOTIwIiBpbmtzY2FwZTp3aW5kb3cteD0iLTgiIGlua3NjYXBlOndpbmRvdy15PSItOCIgaW5rc2NhcGU6em9vbT0iMTAuNTcwMDIyIiBvYmplY3R0b2xlcmFuY2U9IjEwIiBwYWdlY29sb3I9IiNmZmZmZmYiIHNob3dncmlkPSJmYWxzZSI+JiN4YTsJPC9zb2RpcG9kaTpuYW1lZHZpZXc+JiN4YTsmI3hhOzxwYXRoIGlkPSJwYXRoNjU5NDYiIGlua3NjYXBlOmNvbm5lY3Rvci1jdXJ2YXR1cmU9IjAiIHN0eWxlPSJmaWxsOiNhMGExYTIiIGQ9Ik0gMjYuNzksMCBIIDEuNTUgQyAwLjY5LDAgMCwwLjc3IDAsMS42MiBWIDE5LjIgYyAwLDAuODUgMC42OSwxLjYxIDEuNTUsMS42MSBoIDI1LjI0IGMgMC44NiwwIDEuNzIsLTAuNzYgMS43MiwtMS42MSBWIDEuNjIgQyAyOC41MSwwLjc2IDI3LjY1LDAgMjYuNzksMCBaIi8+JiN4YTsmI3hhOzxwYXRoIGlkPSJwYXRoNjU5NTQiIGlua3NjYXBlOmNvbm5lY3Rvci1jdXJ2YXR1cmU9IjAiIHN0eWxlPSJmaWxsOiNmZmZmZmY7ZmlsbC1vcGFjaXR5OjAuMiIgZD0iTSAyNi44MSwwIEMgMjYuOCwwIDI2LjgsMCAyNi43OSwwIEggMS41NSBDIDAuNjksMCAwLDAuNzcgMCwxLjYyIFYgMTkuMiBjIDAsMC44NSAwLjY5LDEuNjEgMS41NSwxLjYxIGggMC42IHoiLz4mI3hhOyYjeGE7PHBhdGggaWQ9InBhdGg2NTk2MiIgaW5rc2NhcGU6Y29ubmVjdG9yLWN1cnZhdHVyZT0iMCIgc3R5bGU9ImZpbGw6IzU5YjRkOSIgZD0iTSAyNi4zNSwxOC42MiBIIDIuMTYgViAyLjE5IEwgMjYuMzUsMi4xNiBaIi8+JiN4YTsmI3hhOzxwYXRoIGlkPSJwYXRoNjU5NzAiIGlua3NjYXBlOmNvbm5lY3Rvci1jdXJ2YXR1cmU9IjAiIHN0eWxlPSJmaWxsOiNiOGQ0MzIiIGQ9Im0gMTQuNTUsMS4yIGMgMCwwLjIyIC0wLjE4LDAuNCAtMC40MSwwLjQgLTAuMjIsMCAtMC40LC0wLjE4IC0wLjQsLTAuNCAwLC0wLjIzIDAuMTgsLTAuNDEgMC40LC0wLjQxIDAuMjMsMCAwLjQxLDAuMTggMC40MSwwLjQxIHoiLz4mI3hhOyYjeGE7PHBhdGggaWQ9InBhdGg2NTk3OCIgaW5rc2NhcGU6Y29ubmVjdG9yLWN1cnZhdHVyZT0iMCIgc3R5bGU9ImZpbGw6I2ZmZmZmZiIgZD0iTSAxNC41Nyw5LjkxIEMgMTQuNTUsOS45MSAxNC41Miw5LjkgMTQuNSw5Ljg5IEwgOS40Nyw2Ljk5IEMgOS40Myw2Ljk3IDkuNCw2LjkyIDkuNCw2Ljg2IDkuNCw2LjgxIDkuNDMsNi43NiA5LjQ3LDYuNzMgbCA1LC0yLjg3IGMgMC4wNCwtMC4wMyAwLjEsLTAuMDMgMC4xNSwwIGwgNS4wMiwyLjg5IGMgMC4wNCwwLjAzIDAuMDcsMC4wOCAwLjA3LDAuMTMgMCwwLjA2IC0wLjAyLDAuMTEgLTAuMDcsMC4xMyBMIDE0LjY1LDkuODkgQyAxNC42Myw5LjkgMTQuNiw5LjkxIDE0LjU3LDkuOTEgWiIvPiYjeGE7JiN4YTs8cGF0aCBpZD0icGF0aDY1OTg2IiBpbmtzY2FwZTpjb25uZWN0b3ItY3VydmF0dXJlPSIwIiBzdHlsZT0iZmlsbDojYTBhMWEyIiBkPSJNIDMxLjI1LDUuNTkgSCA2LjAxIGMgLTAuODYsMCAtMS41NSwwLjc3IC0xLjU1LDEuNjIgdiAxNy41OCBjIDAsMC44NSAwLjY5LDEuNjEgMS41NSwxLjYxIGggMjUuMjQgYyAwLjg2LDAgMS43MiwtMC43NiAxLjcyLC0xLjYxIFYgNy4yMSBjIDAsLTAuODYgLTAuODYsLTEuNjIgLTEuNzIsLTEuNjIgeiIvPiYjeGE7JiN4YTs8cGF0aCBpZD0icGF0aDY1OTk0IiBpbmtzY2FwZTpjb25uZWN0b3ItY3VydmF0dXJlPSIwIiBzdHlsZT0iZmlsbDojZmZmZmZmO2ZpbGwtb3BhY2l0eTowLjIiIGQ9Im0gMzEuMjcsNS41OSBjIC0wLjAxLDAgLTAuMDEsMCAtMC4wMiwwIEggNi4wMSBjIC0wLjg2LDAgLTEuNTUsMC43NyAtMS41NSwxLjYyIHYgMTcuNTggYyAwLDAuODUgMC42OSwxLjYxIDEuNTUsMS42MSBoIDAuNiB6Ii8+JiN4YTsmI3hhOzxwYXRoIGlkPSJwYXRoNjYwMDIiIGlua3NjYXBlOmNvbm5lY3Rvci1jdXJ2YXR1cmU9IjAiIHN0eWxlPSJmaWxsOiM1OWI0ZDkiIGQ9Ik0gMzAuODEsMjQuMjEgSCA2LjYyIFYgNy43OCBMIDMwLjgxLDcuNzUgYyAwLDAgMCwxNi40NiAwLDE2LjQ2IHoiLz4mI3hhOyYjeGE7PHBhdGggaWQ9InBhdGg2NjAxMCIgaW5rc2NhcGU6Y29ubmVjdG9yLWN1cnZhdHVyZT0iMCIgc3R5bGU9ImZpbGw6I2I4ZDQzMiIgZD0ibSAxOS4wMSw2Ljc5IGMgMCwwLjIyIC0wLjE4LDAuNCAtMC40MSwwLjQgLTAuMjIsMCAtMC40LC0wLjE4IC0wLjQsLTAuNCAwLC0wLjIzIDAuMTgsLTAuNDEgMC40LC0wLjQxIDAuMjMsMCAwLjQxLDAuMTggMC40MSwwLjQxIHoiLz4mI3hhOyYjeGE7PHBhdGggaWQ9InBhdGg2NjAxOCIgaW5rc2NhcGU6Y29ubmVjdG9yLWN1cnZhdHVyZT0iMCIgc3R5bGU9ImZpbGw6I2ZmZmZmZiIgZD0ibSAxOS4wMywxNS41IGMgLTAuMDIsMCAtMC4wNSwtMC4wMSAtMC4wNywtMC4wMiBsIC01LjAzLC0yLjkgYyAtMC4wNCwtMC4wMiAtMC4wNywtMC4wNyAtMC4wNywtMC4xMyAwLC0wLjA1IDAuMDMsLTAuMSAwLjA3LC0wLjEzIGwgNSwtMi44NyBjIDAuMDQsLTAuMDMgMC4xLC0wLjAzIDAuMTUsMCBsIDUuMDIsMi44OSBjIDAuMDQsMC4wMyAwLjA3LDAuMDggMC4wNywwLjEzIDAsMC4wNiAtMC4wMiwwLjExIC0wLjA3LDAuMTMgbCAtNC45OSwyLjg4IGMgLTAuMDMsMC4wMSAtMC4wNSwwLjAyIC0wLjA4LDAuMDIgeiIvPiYjeGE7JiN4YTs8cGF0aCBpZD0icGF0aDY2MDI2IiBpbmtzY2FwZTpjb25uZWN0b3ItY3VydmF0dXJlPSIwIiBzdHlsZT0iZmlsbDojN2E3YTdhIiBkPSJNIDI3LjQ4LDMyLjAyIEggMjYuOCAyMC4wNyAxOS43MiBjIDAuOTMsMy4yOSAtMC4zMiwzLjc2IC01LjgsMy43NiB2IDEuNzIgaCA2Ljk3IDUuMDkgNi41OCB2IC0xLjcyIGMgLTUuNDgsMCAtNi4wMiwtMC40NyAtNS4wOCwtMy43NiB6Ii8+JiN4YTsmI3hhOzxwYXRoIGlkPSJwYXRoNjYwMzQiIGlua3NjYXBlOmNvbm5lY3Rvci1jdXJ2YXR1cmU9IjAiIHN0eWxlPSJmaWxsOiNhMGExYTIiIGQ9Ik0gMzUuNzgsMTEuMjIgSCAxMC41NCBjIC0wLjg2LDAgLTEuNTUsMC43NyAtMS41NSwxLjYyIHYgMTcuNTggYyAwLDAuODUgMC42OSwxLjYxIDEuNTUsMS42MSBoIDI1LjI0IGMgMC44NiwwIDEuNzIsLTAuNzYgMS43MiwtMS42MSBWIDEyLjg0IGMgMCwtMC44NSAtMC44NiwtMS42MiAtMS43MiwtMS42MiB6Ii8+JiN4YTsmI3hhOzxwYXRoIGlkPSJwYXRoNjYwNDIiIGlua3NjYXBlOmNvbm5lY3Rvci1jdXJ2YXR1cmU9IjAiIHN0eWxlPSJmaWxsOiNmZmZmZmY7ZmlsbC1vcGFjaXR5OjAuMiIgZD0ibSAzNS43OSwxMS4yMiBjIC0wLjAxLDAgLTAuMDEsMCAtMC4wMiwwIEggMTAuNTMgYyAtMC44NiwwIC0xLjU1LDAuNzcgLTEuNTUsMS42MiB2IDE3LjU4IGMgMCwwLjg1IDAuNjksMS42MSAxLjU1LDEuNjEgaCAwLjYgeiIvPiYjeGE7JiN4YTs8cGF0aCBpZD0icGF0aDY2MDUwIiBpbmtzY2FwZTpjb25uZWN0b3ItY3VydmF0dXJlPSIwIiBzdHlsZT0iZmlsbDojNTliNGQ5IiBkPSJNIDM1LjM0LDI5Ljg0IEggMTEuMTUgViAxMy40MSBsIDI0LjE5LC0wLjAzIHoiLz4mI3hhOyYjeGE7PHJlY3QgaWQ9InJlY3Q2NjA1OCIgeD0iMTMuOTE5OTk4IiB5PSIzNS43Nzk5OTkiIHN0eWxlPSJmaWxsOiNhMGExYTIiIHdpZHRoPSIxOC42Mzk5OTkiIGhlaWdodD0iMS43MiIvPiYjeGE7JiN4YTs8cGF0aCBpZD0icGF0aDY2MDY2IiBpbmtzY2FwZTpjb25uZWN0b3ItY3VydmF0dXJlPSIwIiBzdHlsZT0iZmlsbDojYjhkNDMyIiBkPSJtIDIzLjU0LDEyLjQxIGMgMCwwLjIyIC0wLjE4LDAuNCAtMC40MSwwLjQgLTAuMjIsMCAtMC40LC0wLjE4IC0wLjQsLTAuNCAwLC0wLjIzIDAuMTgsLTAuNDEgMC40LC0wLjQxIDAuMjMsMCAwLjQxLDAuMTggMC40MSwwLjQxIHoiLz4mI3hhOyYjeGE7PHBhdGggaWQ9InBhdGg2NjA3NCIgaW5rc2NhcGU6Y29ubmVjdG9yLWN1cnZhdHVyZT0iMCIgc3R5bGU9ImZpbGw6I2ZmZmZmZiIgZD0ibSAyMy41NSwyMS4xMiBjIC0wLjAyLDAgLTAuMDUsLTAuMDEgLTAuMDcsLTAuMDIgbCAtNS4wMywtMi45IGMgLTAuMDQsLTAuMDIgLTAuMDcsLTAuMDcgLTAuMDcsLTAuMTMgMCwtMC4wNSAwLjAzLC0wLjEgMC4wNywtMC4xMyBsIDUsLTIuODcgYyAwLjA0LC0wLjAzIDAuMSwtMC4wMyAwLjE1LDAgbCA1LjAyLDIuODkgYyAwLjA0LDAuMDMgMC4wNywwLjA4IDAuMDcsMC4xMyAwLDAuMDYgLTAuMDIsMC4xMSAtMC4wNywwLjEzIGwgLTQuOTksMi44OCBjIC0wLjAyLDAuMDEgLTAuMDUsMC4wMiAtMC4wOCwwLjAyIHoiLz4mI3hhOyYjeGE7PHBhdGggaWQ9InBhdGg2NjA4MiIgaW5rc2NhcGU6Y29ubmVjdG9yLWN1cnZhdHVyZT0iMCIgc3R5bGU9ImZpbGw6I2ZmZmZmZjtmaWxsLW9wYWNpdHk6MC43IiBkPSJtIDIyLjgzLDI4LjE2IGMgLTAuMDMsMCAtMC4wNSwtMC4wMSAtMC4wOCwtMC4wMiBsIC01LC0yLjg5IEMgMTcuNywyNS4yMyAxNy42NywyNS4xOCAxNy42NywyNS4xMiB2IC01Ljc5IGMgMCwtMC4wNSAwLjAzLC0wLjEgMC4wOCwtMC4xMyAwLjA0LC0wLjAzIDAuMSwtMC4wMyAwLjE1LDAgbCA1LjAxLDIuODkgYyAwLjA0LDAuMDMgMC4wNywwLjA3IDAuMDcsMC4xMyB2IDUuNzkgYyAwLDAuMDUgLTAuMDMsMC4xIC0wLjA3LDAuMTMgLTAuMDMsMC4wMSAtMC4wNSwwLjAyIC0wLjA4LDAuMDIgeiIvPiYjeGE7JiN4YTs8cGF0aCBpZD0icGF0aDY2MDkwIiBpbmtzY2FwZTpjb25uZWN0b3ItY3VydmF0dXJlPSIwIiBzdHlsZT0iZmlsbDojZmZmZmZmO2ZpbGwtb3BhY2l0eTowLjQiIGQ9Im0gMjQuMjUsMjguMTYgYyAtMC4wMywwIC0wLjA1LC0wLjAxIC0wLjA4LC0wLjAyIC0wLjA0LC0wLjAzIC0wLjA3LC0wLjA4IC0wLjA3LC0wLjEzIHYgLTUuNzYgYyAwLC0wLjA1IDAuMDMsLTAuMSAwLjA3LC0wLjEzIGwgNS4wMSwtMi44OCBjIDAuMDUsLTAuMDMgMC4xLC0wLjAzIDAuMTUsMCAwLjA1LDAuMDMgMC4wOCwwLjA4IDAuMDgsMC4xMyB2IDUuNzUgYyAwLDAuMDYgLTAuMDMsMC4xMSAtMC4wOCwwLjE0IGwgLTUsMi44OCBjIC0wLjAzLDAuMDEgLTAuMDUsMC4wMiAtMC4wOCwwLjAyIHoiLz4mI3hhOzwvc3ZnPg==;" parent="1" vertex="1">
          <mxGeometry x="766" y="357" width="39" height="39" as="geometry" />
        </mxCell>
        <mxCell id="62H-jpsfVxYuQIRcN-9s-16" value="" style="rounded=1;whiteSpace=wrap;html=1;" parent="1" vertex="1">
          <mxGeometry x="905" y="346.5" width="60" height="60" as="geometry" />
        </mxCell>
        <mxCell id="62H-jpsfVxYuQIRcN-9s-17" value="" style="shape=image;verticalLabelPosition=bottom;labelBackgroundColor=#ffffff;verticalAlign=top;aspect=fixed;imageAspect=0;image=data:image/svg+xml,PHN2ZyB4bWxuczpkYz0iaHR0cDovL3B1cmwub3JnL2RjL2VsZW1lbnRzLzEuMS8iIHhtbG5zOmNjPSJodHRwOi8vY3JlYXRpdmVjb21tb25zLm9yZy9ucyMiIHhtbG5zOnJkZj0iaHR0cDovL3d3dy53My5vcmcvMTk5OS8wMi8yMi1yZGYtc3ludGF4LW5zIyIgeG1sbnM6c3ZnPSJodHRwOi8vd3d3LnczLm9yZy8yMDAwL3N2ZyIgeG1sbnM9Imh0dHA6Ly93d3cudzMub3JnLzIwMDAvc3ZnIiB4bWxuczpzb2RpcG9kaT0iaHR0cDovL3NvZGlwb2RpLnNvdXJjZWZvcmdlLm5ldC9EVEQvc29kaXBvZGktMC5kdGQiIHhtbG5zOmlua3NjYXBlPSJodHRwOi8vd3d3Lmlua3NjYXBlLm9yZy9uYW1lc3BhY2VzL2lua3NjYXBlIiB2ZXJzaW9uPSIxLjEiIGlkPSJzdmc2NjA5NiIgaW5rc2NhcGU6dmVyc2lvbj0iMC45Mi4zICgyNDA1NTQ2LCAyMDE4LTAzLTExKSIgc29kaXBvZGk6ZG9jbmFtZT0iYXp1cmVfdm1fc2NhbGVfc2V0LnN2ZyIgeD0iMHB4IiB5PSIwcHgiIHZpZXdCb3g9IjAgMCAzNy41IDM3LjUiIHhtbDpzcGFjZT0icHJlc2VydmUiIHdpZHRoPSIzNy41IiBoZWlnaHQ9IjM3LjUiPjxtZXRhZGF0YSBpZD0ibWV0YWRhdGEyMDk1NyI+PHJkZjpSREY+PGNjOldvcmsgcmRmOmFib3V0PSIiPjxkYzpmb3JtYXQ+aW1hZ2Uvc3ZnK3htbDwvZGM6Zm9ybWF0PjxkYzp0eXBlIHJkZjpyZXNvdXJjZT0iaHR0cDovL3B1cmwub3JnL2RjL2RjbWl0eXBlL1N0aWxsSW1hZ2UiLz48ZGM6dGl0bGUvPjwvY2M6V29yaz48L3JkZjpSREY+PC9tZXRhZGF0YT48ZGVmcyBpZD0iZGVmczIwOTU1Ii8+JiN4YTs8ZmlsdGVyIGlkPSJmaWx0ZXJfMiI+JiN4YTsJPGZlR2F1c3NpYW5CbHVyIGlkPSJmZUdhdXNzaWFuQmx1cjY1OTMzIiBzdGREZXZpYXRpb249IjIiLz4mI3hhOzwvZmlsdGVyPiYjeGE7PHNvZGlwb2RpOm5hbWVkdmlldyBib3JkZXJjb2xvcj0iIzY2NjY2NiIgYm9yZGVyb3BhY2l0eT0iMSIgZml0LW1hcmdpbi1ib3R0b209IjAiIGZpdC1tYXJnaW4tbGVmdD0iMCIgZml0LW1hcmdpbi1yaWdodD0iMCIgZml0LW1hcmdpbi10b3A9IjAiIGdyaWR0b2xlcmFuY2U9IjEwIiBndWlkZXRvbGVyYW5jZT0iMTAiIGlkPSJuYW1lZHZpZXc2NjA5OCIgaW5rc2NhcGU6Y3VycmVudC1sYXllcj0ic3ZnNjYwOTYiIGlua3NjYXBlOmN4PSItNS43MTM2Mjk5IiBpbmtzY2FwZTpjeT0iOC42NTU1MTUzIiBpbmtzY2FwZTpwYWdlb3BhY2l0eT0iMCIgaW5rc2NhcGU6cGFnZXNoYWRvdz0iMiIgaW5rc2NhcGU6d2luZG93LWhlaWdodD0iMTAxNyIgaW5rc2NhcGU6d2luZG93LW1heGltaXplZD0iMSIgaW5rc2NhcGU6d2luZG93LXdpZHRoPSIxOTIwIiBpbmtzY2FwZTp3aW5kb3cteD0iLTgiIGlua3NjYXBlOndpbmRvdy15PSItOCIgaW5rc2NhcGU6em9vbT0iMTAuNTcwMDIyIiBvYmplY3R0b2xlcmFuY2U9IjEwIiBwYWdlY29sb3I9IiNmZmZmZmYiIHNob3dncmlkPSJmYWxzZSI+JiN4YTsJPC9zb2RpcG9kaTpuYW1lZHZpZXc+JiN4YTsmI3hhOzxwYXRoIGlkPSJwYXRoNjU5NDYiIGlua3NjYXBlOmNvbm5lY3Rvci1jdXJ2YXR1cmU9IjAiIHN0eWxlPSJmaWxsOiNhMGExYTIiIGQ9Ik0gMjYuNzksMCBIIDEuNTUgQyAwLjY5LDAgMCwwLjc3IDAsMS42MiBWIDE5LjIgYyAwLDAuODUgMC42OSwxLjYxIDEuNTUsMS42MSBoIDI1LjI0IGMgMC44NiwwIDEuNzIsLTAuNzYgMS43MiwtMS42MSBWIDEuNjIgQyAyOC41MSwwLjc2IDI3LjY1LDAgMjYuNzksMCBaIi8+JiN4YTsmI3hhOzxwYXRoIGlkPSJwYXRoNjU5NTQiIGlua3NjYXBlOmNvbm5lY3Rvci1jdXJ2YXR1cmU9IjAiIHN0eWxlPSJmaWxsOiNmZmZmZmY7ZmlsbC1vcGFjaXR5OjAuMiIgZD0iTSAyNi44MSwwIEMgMjYuOCwwIDI2LjgsMCAyNi43OSwwIEggMS41NSBDIDAuNjksMCAwLDAuNzcgMCwxLjYyIFYgMTkuMiBjIDAsMC44NSAwLjY5LDEuNjEgMS41NSwxLjYxIGggMC42IHoiLz4mI3hhOyYjeGE7PHBhdGggaWQ9InBhdGg2NTk2MiIgaW5rc2NhcGU6Y29ubmVjdG9yLWN1cnZhdHVyZT0iMCIgc3R5bGU9ImZpbGw6IzU5YjRkOSIgZD0iTSAyNi4zNSwxOC42MiBIIDIuMTYgViAyLjE5IEwgMjYuMzUsMi4xNiBaIi8+JiN4YTsmI3hhOzxwYXRoIGlkPSJwYXRoNjU5NzAiIGlua3NjYXBlOmNvbm5lY3Rvci1jdXJ2YXR1cmU9IjAiIHN0eWxlPSJmaWxsOiNiOGQ0MzIiIGQ9Im0gMTQuNTUsMS4yIGMgMCwwLjIyIC0wLjE4LDAuNCAtMC40MSwwLjQgLTAuMjIsMCAtMC40LC0wLjE4IC0wLjQsLTAuNCAwLC0wLjIzIDAuMTgsLTAuNDEgMC40LC0wLjQxIDAuMjMsMCAwLjQxLDAuMTggMC40MSwwLjQxIHoiLz4mI3hhOyYjeGE7PHBhdGggaWQ9InBhdGg2NTk3OCIgaW5rc2NhcGU6Y29ubmVjdG9yLWN1cnZhdHVyZT0iMCIgc3R5bGU9ImZpbGw6I2ZmZmZmZiIgZD0iTSAxNC41Nyw5LjkxIEMgMTQuNTUsOS45MSAxNC41Miw5LjkgMTQuNSw5Ljg5IEwgOS40Nyw2Ljk5IEMgOS40Myw2Ljk3IDkuNCw2LjkyIDkuNCw2Ljg2IDkuNCw2LjgxIDkuNDMsNi43NiA5LjQ3LDYuNzMgbCA1LC0yLjg3IGMgMC4wNCwtMC4wMyAwLjEsLTAuMDMgMC4xNSwwIGwgNS4wMiwyLjg5IGMgMC4wNCwwLjAzIDAuMDcsMC4wOCAwLjA3LDAuMTMgMCwwLjA2IC0wLjAyLDAuMTEgLTAuMDcsMC4xMyBMIDE0LjY1LDkuODkgQyAxNC42Myw5LjkgMTQuNiw5LjkxIDE0LjU3LDkuOTEgWiIvPiYjeGE7JiN4YTs8cGF0aCBpZD0icGF0aDY1OTg2IiBpbmtzY2FwZTpjb25uZWN0b3ItY3VydmF0dXJlPSIwIiBzdHlsZT0iZmlsbDojYTBhMWEyIiBkPSJNIDMxLjI1LDUuNTkgSCA2LjAxIGMgLTAuODYsMCAtMS41NSwwLjc3IC0xLjU1LDEuNjIgdiAxNy41OCBjIDAsMC44NSAwLjY5LDEuNjEgMS41NSwxLjYxIGggMjUuMjQgYyAwLjg2LDAgMS43MiwtMC43NiAxLjcyLC0xLjYxIFYgNy4yMSBjIDAsLTAuODYgLTAuODYsLTEuNjIgLTEuNzIsLTEuNjIgeiIvPiYjeGE7JiN4YTs8cGF0aCBpZD0icGF0aDY1OTk0IiBpbmtzY2FwZTpjb25uZWN0b3ItY3VydmF0dXJlPSIwIiBzdHlsZT0iZmlsbDojZmZmZmZmO2ZpbGwtb3BhY2l0eTowLjIiIGQ9Im0gMzEuMjcsNS41OSBjIC0wLjAxLDAgLTAuMDEsMCAtMC4wMiwwIEggNi4wMSBjIC0wLjg2LDAgLTEuNTUsMC43NyAtMS41NSwxLjYyIHYgMTcuNTggYyAwLDAuODUgMC42OSwxLjYxIDEuNTUsMS42MSBoIDAuNiB6Ii8+JiN4YTsmI3hhOzxwYXRoIGlkPSJwYXRoNjYwMDIiIGlua3NjYXBlOmNvbm5lY3Rvci1jdXJ2YXR1cmU9IjAiIHN0eWxlPSJmaWxsOiM1OWI0ZDkiIGQ9Ik0gMzAuODEsMjQuMjEgSCA2LjYyIFYgNy43OCBMIDMwLjgxLDcuNzUgYyAwLDAgMCwxNi40NiAwLDE2LjQ2IHoiLz4mI3hhOyYjeGE7PHBhdGggaWQ9InBhdGg2NjAxMCIgaW5rc2NhcGU6Y29ubmVjdG9yLWN1cnZhdHVyZT0iMCIgc3R5bGU9ImZpbGw6I2I4ZDQzMiIgZD0ibSAxOS4wMSw2Ljc5IGMgMCwwLjIyIC0wLjE4LDAuNCAtMC40MSwwLjQgLTAuMjIsMCAtMC40LC0wLjE4IC0wLjQsLTAuNCAwLC0wLjIzIDAuMTgsLTAuNDEgMC40LC0wLjQxIDAuMjMsMCAwLjQxLDAuMTggMC40MSwwLjQxIHoiLz4mI3hhOyYjeGE7PHBhdGggaWQ9InBhdGg2NjAxOCIgaW5rc2NhcGU6Y29ubmVjdG9yLWN1cnZhdHVyZT0iMCIgc3R5bGU9ImZpbGw6I2ZmZmZmZiIgZD0ibSAxOS4wMywxNS41IGMgLTAuMDIsMCAtMC4wNSwtMC4wMSAtMC4wNywtMC4wMiBsIC01LjAzLC0yLjkgYyAtMC4wNCwtMC4wMiAtMC4wNywtMC4wNyAtMC4wNywtMC4xMyAwLC0wLjA1IDAuMDMsLTAuMSAwLjA3LC0wLjEzIGwgNSwtMi44NyBjIDAuMDQsLTAuMDMgMC4xLC0wLjAzIDAuMTUsMCBsIDUuMDIsMi44OSBjIDAuMDQsMC4wMyAwLjA3LDAuMDggMC4wNywwLjEzIDAsMC4wNiAtMC4wMiwwLjExIC0wLjA3LDAuMTMgbCAtNC45OSwyLjg4IGMgLTAuMDMsMC4wMSAtMC4wNSwwLjAyIC0wLjA4LDAuMDIgeiIvPiYjeGE7JiN4YTs8cGF0aCBpZD0icGF0aDY2MDI2IiBpbmtzY2FwZTpjb25uZWN0b3ItY3VydmF0dXJlPSIwIiBzdHlsZT0iZmlsbDojN2E3YTdhIiBkPSJNIDI3LjQ4LDMyLjAyIEggMjYuOCAyMC4wNyAxOS43MiBjIDAuOTMsMy4yOSAtMC4zMiwzLjc2IC01LjgsMy43NiB2IDEuNzIgaCA2Ljk3IDUuMDkgNi41OCB2IC0xLjcyIGMgLTUuNDgsMCAtNi4wMiwtMC40NyAtNS4wOCwtMy43NiB6Ii8+JiN4YTsmI3hhOzxwYXRoIGlkPSJwYXRoNjYwMzQiIGlua3NjYXBlOmNvbm5lY3Rvci1jdXJ2YXR1cmU9IjAiIHN0eWxlPSJmaWxsOiNhMGExYTIiIGQ9Ik0gMzUuNzgsMTEuMjIgSCAxMC41NCBjIC0wLjg2LDAgLTEuNTUsMC43NyAtMS41NSwxLjYyIHYgMTcuNTggYyAwLDAuODUgMC42OSwxLjYxIDEuNTUsMS42MSBoIDI1LjI0IGMgMC44NiwwIDEuNzIsLTAuNzYgMS43MiwtMS42MSBWIDEyLjg0IGMgMCwtMC44NSAtMC44NiwtMS42MiAtMS43MiwtMS42MiB6Ii8+JiN4YTsmI3hhOzxwYXRoIGlkPSJwYXRoNjYwNDIiIGlua3NjYXBlOmNvbm5lY3Rvci1jdXJ2YXR1cmU9IjAiIHN0eWxlPSJmaWxsOiNmZmZmZmY7ZmlsbC1vcGFjaXR5OjAuMiIgZD0ibSAzNS43OSwxMS4yMiBjIC0wLjAxLDAgLTAuMDEsMCAtMC4wMiwwIEggMTAuNTMgYyAtMC44NiwwIC0xLjU1LDAuNzcgLTEuNTUsMS42MiB2IDE3LjU4IGMgMCwwLjg1IDAuNjksMS42MSAxLjU1LDEuNjEgaCAwLjYgeiIvPiYjeGE7JiN4YTs8cGF0aCBpZD0icGF0aDY2MDUwIiBpbmtzY2FwZTpjb25uZWN0b3ItY3VydmF0dXJlPSIwIiBzdHlsZT0iZmlsbDojNTliNGQ5IiBkPSJNIDM1LjM0LDI5Ljg0IEggMTEuMTUgViAxMy40MSBsIDI0LjE5LC0wLjAzIHoiLz4mI3hhOyYjeGE7PHJlY3QgaWQ9InJlY3Q2NjA1OCIgeD0iMTMuOTE5OTk4IiB5PSIzNS43Nzk5OTkiIHN0eWxlPSJmaWxsOiNhMGExYTIiIHdpZHRoPSIxOC42Mzk5OTkiIGhlaWdodD0iMS43MiIvPiYjeGE7JiN4YTs8cGF0aCBpZD0icGF0aDY2MDY2IiBpbmtzY2FwZTpjb25uZWN0b3ItY3VydmF0dXJlPSIwIiBzdHlsZT0iZmlsbDojYjhkNDMyIiBkPSJtIDIzLjU0LDEyLjQxIGMgMCwwLjIyIC0wLjE4LDAuNCAtMC40MSwwLjQgLTAuMjIsMCAtMC40LC0wLjE4IC0wLjQsLTAuNCAwLC0wLjIzIDAuMTgsLTAuNDEgMC40LC0wLjQxIDAuMjMsMCAwLjQxLDAuMTggMC40MSwwLjQxIHoiLz4mI3hhOyYjeGE7PHBhdGggaWQ9InBhdGg2NjA3NCIgaW5rc2NhcGU6Y29ubmVjdG9yLWN1cnZhdHVyZT0iMCIgc3R5bGU9ImZpbGw6I2ZmZmZmZiIgZD0ibSAyMy41NSwyMS4xMiBjIC0wLjAyLDAgLTAuMDUsLTAuMDEgLTAuMDcsLTAuMDIgbCAtNS4wMywtMi45IGMgLTAuMDQsLTAuMDIgLTAuMDcsLTAuMDcgLTAuMDcsLTAuMTMgMCwtMC4wNSAwLjAzLC0wLjEgMC4wNywtMC4xMyBsIDUsLTIuODcgYyAwLjA0LC0wLjAzIDAuMSwtMC4wMyAwLjE1LDAgbCA1LjAyLDIuODkgYyAwLjA0LDAuMDMgMC4wNywwLjA4IDAuMDcsMC4xMyAwLDAuMDYgLTAuMDIsMC4xMSAtMC4wNywwLjEzIGwgLTQuOTksMi44OCBjIC0wLjAyLDAuMDEgLTAuMDUsMC4wMiAtMC4wOCwwLjAyIHoiLz4mI3hhOyYjeGE7PHBhdGggaWQ9InBhdGg2NjA4MiIgaW5rc2NhcGU6Y29ubmVjdG9yLWN1cnZhdHVyZT0iMCIgc3R5bGU9ImZpbGw6I2ZmZmZmZjtmaWxsLW9wYWNpdHk6MC43IiBkPSJtIDIyLjgzLDI4LjE2IGMgLTAuMDMsMCAtMC4wNSwtMC4wMSAtMC4wOCwtMC4wMiBsIC01LC0yLjg5IEMgMTcuNywyNS4yMyAxNy42NywyNS4xOCAxNy42NywyNS4xMiB2IC01Ljc5IGMgMCwtMC4wNSAwLjAzLC0wLjEgMC4wOCwtMC4xMyAwLjA0LC0wLjAzIDAuMSwtMC4wMyAwLjE1LDAgbCA1LjAxLDIuODkgYyAwLjA0LDAuMDMgMC4wNywwLjA3IDAuMDcsMC4xMyB2IDUuNzkgYyAwLDAuMDUgLTAuMDMsMC4xIC0wLjA3LDAuMTMgLTAuMDMsMC4wMSAtMC4wNSwwLjAyIC0wLjA4LDAuMDIgeiIvPiYjeGE7JiN4YTs8cGF0aCBpZD0icGF0aDY2MDkwIiBpbmtzY2FwZTpjb25uZWN0b3ItY3VydmF0dXJlPSIwIiBzdHlsZT0iZmlsbDojZmZmZmZmO2ZpbGwtb3BhY2l0eTowLjQiIGQ9Im0gMjQuMjUsMjguMTYgYyAtMC4wMywwIC0wLjA1LC0wLjAxIC0wLjA4LC0wLjAyIC0wLjA0LC0wLjAzIC0wLjA3LC0wLjA4IC0wLjA3LC0wLjEzIHYgLTUuNzYgYyAwLC0wLjA1IDAuMDMsLTAuMSAwLjA3LC0wLjEzIGwgNS4wMSwtMi44OCBjIDAuMDUsLTAuMDMgMC4xLC0wLjAzIDAuMTUsMCAwLjA1LDAuMDMgMC4wOCwwLjA4IDAuMDgsMC4xMyB2IDUuNzUgYyAwLDAuMDYgLTAuMDMsMC4xMSAtMC4wOCwwLjE0IGwgLTUsMi44OCBjIC0wLjAzLDAuMDEgLTAuMDUsMC4wMiAtMC4wOCwwLjAyIHoiLz4mI3hhOzwvc3ZnPg==;" parent="1" vertex="1">
          <mxGeometry x="916.0000000000001" y="357.5" width="38" height="38" as="geometry" />
        </mxCell>
        <mxCell id="62H-jpsfVxYuQIRcN-9s-28" style="edgeStyle=orthogonalEdgeStyle;rounded=0;orthogonalLoop=1;jettySize=auto;html=1;exitX=1;exitY=0.5;exitDx=0;exitDy=0;entryX=0;entryY=0.5;entryDx=0;entryDy=0;" parent="1" source="62H-jpsfVxYuQIRcN-9s-18" target="62H-jpsfVxYuQIRcN-9s-11" edge="1">
          <mxGeometry relative="1" as="geometry">
            <mxPoint x="335" y="376.5" as="targetPoint" />
          </mxGeometry>
        </mxCell>
        <mxCell id="62H-jpsfVxYuQIRcN-9s-18" value="" style="rhombus;whiteSpace=wrap;html=1;fillColor=#dae8fc;strokeColor=#6c8ebf;" parent="1" vertex="1">
          <mxGeometry x="348" y="361" width="30" height="30" as="geometry" />
        </mxCell>
        <mxCell id="62H-jpsfVxYuQIRcN-9s-20" value="Circuit&amp;nbsp;&lt;div&gt;&lt;span style=&quot;background-color: transparent; color: light-dark(rgb(0, 0, 0), rgb(255, 255, 255));&quot;&gt;Breaker&lt;/span&gt;&lt;/div&gt;" style="text;html=1;align=center;verticalAlign=middle;resizable=0;points=[];autosize=1;strokeColor=none;fillColor=none;" parent="1" vertex="1">
          <mxGeometry x="327" y="312.25" width="70" height="40" as="geometry" />
        </mxCell>
        <mxCell id="62H-jpsfVxYuQIRcN-9s-21" value="Frontend-ScaleSet" style="text;html=1;align=center;verticalAlign=middle;resizable=0;points=[];autosize=1;strokeColor=none;fillColor=none;" parent="1" vertex="1">
          <mxGeometry x="415" y="314.5" width="120" height="30" as="geometry" />
        </mxCell>
        <mxCell id="62H-jpsfVxYuQIRcN-9s-22" value="AuthApi-ScaleSet" style="text;html=1;align=center;verticalAlign=middle;resizable=0;points=[];autosize=1;strokeColor=none;fillColor=none;" parent="1" vertex="1">
          <mxGeometry x="571" y="312.25" width="120" height="30" as="geometry" />
        </mxCell>
        <mxCell id="62H-jpsfVxYuQIRcN-9s-23" value="UsersApi-ScaleSet" style="text;html=1;align=center;verticalAlign=middle;resizable=0;points=[];autosize=1;strokeColor=none;fillColor=none;" parent="1" vertex="1">
          <mxGeometry x="725" y="312.25" width="120" height="30" as="geometry" />
        </mxCell>
        <mxCell id="62H-jpsfVxYuQIRcN-9s-24" value="TodosApi-ScaleSet" style="text;html=1;align=center;verticalAlign=middle;resizable=0;points=[];autosize=1;strokeColor=none;fillColor=none;" parent="1" vertex="1">
          <mxGeometry x="875" y="312.25" width="120" height="30" as="geometry" />
        </mxCell>
        <mxCell id="62H-jpsfVxYuQIRcN-9s-25" value="Log-processor" style="text;html=1;align=center;verticalAlign=middle;resizable=0;points=[];autosize=1;strokeColor=none;fillColor=none;" parent="1" vertex="1">
          <mxGeometry x="620" y="570" width="100" height="30" as="geometry" />
        </mxCell>
        <mxCell id="62H-jpsfVxYuQIRcN-9s-34" style="edgeStyle=orthogonalEdgeStyle;rounded=0;orthogonalLoop=1;jettySize=auto;html=1;entryX=0.75;entryY=1;entryDx=0;entryDy=0;" parent="1" source="62H-jpsfVxYuQIRcN-9s-26" target="62H-jpsfVxYuQIRcN-9s-14" edge="1">
          <mxGeometry relative="1" as="geometry" />
        </mxCell>
        <mxCell id="62H-jpsfVxYuQIRcN-9s-35" style="edgeStyle=orthogonalEdgeStyle;rounded=0;orthogonalLoop=1;jettySize=auto;html=1;entryX=0.25;entryY=1;entryDx=0;entryDy=0;" parent="1" source="62H-jpsfVxYuQIRcN-9s-26" target="62H-jpsfVxYuQIRcN-9s-16" edge="1">
          <mxGeometry relative="1" as="geometry" />
        </mxCell>
        <mxCell id="62H-jpsfVxYuQIRcN-9s-26" value="" style="image;sketch=0;aspect=fixed;html=1;points=[];align=center;fontSize=12;image=img/lib/mscae/Azure_Cache_for_Redis.svg;" parent="1" vertex="1">
          <mxGeometry x="835" y="476" width="50" height="50" as="geometry" />
        </mxCell>
        <mxCell id="QxiYq2VWY9i5o4Ojquvg-2" style="edgeStyle=orthogonalEdgeStyle;rounded=0;orthogonalLoop=1;jettySize=auto;html=1;entryX=0.5;entryY=1;entryDx=0;entryDy=0;" edge="1" parent="1" source="62H-jpsfVxYuQIRcN-9s-36" target="62H-jpsfVxYuQIRcN-9s-12">
          <mxGeometry relative="1" as="geometry" />
        </mxCell>
        <mxCell id="62H-jpsfVxYuQIRcN-9s-36" value="" style="points=[];aspect=fixed;html=1;align=center;shadow=0;dashed=0;fillColor=#FF6A00;strokeColor=none;shape=mxgraph.alibaba_cloud.redis_kvstore;" parent="1" vertex="1">
          <mxGeometry x="603.75" y="446" width="52.5" height="41.4" as="geometry" />
        </mxCell>
        <mxCell id="62H-jpsfVxYuQIRcN-9s-38" value="Client" style="text;html=1;align=center;verticalAlign=middle;resizable=0;points=[];autosize=1;strokeColor=none;fillColor=none;" parent="1" vertex="1">
          <mxGeometry x="244.5" y="304.5" width="50" height="30" as="geometry" />
        </mxCell>
        <mxCell id="62H-jpsfVxYuQIRcN-9s-39" value="Redis KVStore" style="text;html=1;align=center;verticalAlign=middle;resizable=0;points=[];autosize=1;strokeColor=none;fillColor=none;" parent="1" vertex="1">
          <mxGeometry x="580" y="487.4" width="100" height="30" as="geometry" />
        </mxCell>
        <mxCell id="62H-jpsfVxYuQIRcN-9s-40" value="Azure Cache&amp;nbsp;&lt;div&gt;For Redis&lt;/div&gt;" style="text;html=1;align=center;verticalAlign=middle;resizable=0;points=[];autosize=1;strokeColor=none;fillColor=none;" parent="1" vertex="1">
          <mxGeometry x="810" y="431" width="100" height="40" as="geometry" />
        </mxCell>
        <mxCell id="62H-jpsfVxYuQIRcN-9s-41" value="Redis DB" style="text;html=1;align=center;verticalAlign=middle;resizable=0;points=[];autosize=1;strokeColor=none;fillColor=none;" parent="1" vertex="1">
          <mxGeometry x="860" y="543" width="70" height="30" as="geometry" />
        </mxCell>
        <mxCell id="62H-jpsfVxYuQIRcN-9s-45" style="edgeStyle=orthogonalEdgeStyle;rounded=0;orthogonalLoop=1;jettySize=auto;html=1;entryX=1;entryY=0.5;entryDx=0;entryDy=0;" parent="1" source="62H-jpsfVxYuQIRcN-9s-42" target="62H-jpsfVxYuQIRcN-9s-2" edge="1">
          <mxGeometry relative="1" as="geometry">
            <Array as="points">
              <mxPoint x="860" y="620" />
              <mxPoint x="691" y="620" />
            </Array>
          </mxGeometry>
        </mxCell>
        <mxCell id="QxiYq2VWY9i5o4Ojquvg-3" style="edgeStyle=orthogonalEdgeStyle;rounded=0;orthogonalLoop=1;jettySize=auto;html=1;" edge="1" parent="1" source="62H-jpsfVxYuQIRcN-9s-42" target="62H-jpsfVxYuQIRcN-9s-26">
          <mxGeometry relative="1" as="geometry" />
        </mxCell>
        <mxCell id="62H-jpsfVxYuQIRcN-9s-42" value="" style="image;sketch=0;aspect=fixed;html=1;points=[];align=center;fontSize=12;image=img/lib/mscae/Cache_Redis_Product.svg;" parent="1" vertex="1">
          <mxGeometry x="835" y="566" width="50" height="42" as="geometry" />
        </mxCell>
        <mxCell id="62H-jpsfVxYuQIRcN-9s-43" style="edgeStyle=orthogonalEdgeStyle;rounded=0;orthogonalLoop=1;jettySize=auto;html=1;exitX=0.25;exitY=1;exitDx=0;exitDy=0;entryX=-0.002;entryY=0.751;entryDx=0;entryDy=0;entryPerimeter=0;" parent="1" source="62H-jpsfVxYuQIRcN-9s-14" target="62H-jpsfVxYuQIRcN-9s-42" edge="1">
          <mxGeometry relative="1" as="geometry" />
        </mxCell>
        <mxCell id="62H-jpsfVxYuQIRcN-9s-44" style="edgeStyle=orthogonalEdgeStyle;rounded=0;orthogonalLoop=1;jettySize=auto;html=1;exitX=0.75;exitY=1;exitDx=0;exitDy=0;entryX=0.993;entryY=0.688;entryDx=0;entryDy=0;entryPerimeter=0;" parent="1" source="62H-jpsfVxYuQIRcN-9s-16" target="62H-jpsfVxYuQIRcN-9s-42" edge="1">
          <mxGeometry relative="1" as="geometry" />
        </mxCell>
        <mxCell id="62H-jpsfVxYuQIRcN-9s-46" value="Cloud&#xa;Monitoring" style="sketch=0;html=1;verticalAlign=top;labelPosition=center;verticalLabelPosition=bottom;align=center;spacingTop=-6;fontSize=11;fontStyle=1;fontColor=#999999;shape=image;aspect=fixed;imageAspect=0;image=data:image/svg+xml,PHN2ZyB4bWxucz0iaHR0cDovL3d3dy53My5vcmcvMjAwMC9zdmciIHhtbG5zOnY9Imh0dHBzOi8vdmVjdGEuaW8vbmFubyIgd2lkdGg9IjIwIiBoZWlnaHQ9IjEzLjUyOTk5OTczMjk3MTE5MSIgdmlld0JveD0iLTIuOTMyMDk3ODk3ODEyMDE0ZS05IC01LjI1ODAxNTA0MTgzNzk1NmUtMTUgMjAgMTMuNTI5OTk5NzMyOTcxMTkxIj4mI3hhOwk8c3R5bGUgdHlwZT0idGV4dC9jc3MiPiYjeGE7CS5zdDB7ZmlsbDojNDI4NWY0O30mI3hhOwkuc3Qxe2ZpbGw6IzY2OWRmNjt9JiN4YTsJPC9zdHlsZT4mI3hhOwk8cGF0aCBjbGFzcz0ic3QxIiBkPSJNOC44MyAxMC41OGgyLjMzdjIuNjRIOC44M3oiLz4mI3hhOwk8cGF0aCBjbGFzcz0ic3QwIiBkPSJNMTYuNDggOC42MWEuNTYuNTYgMCAwIDEtLjQtLjE3TDEyIDQuMjEgOS4yNiA3LjFhLjU3LjU3IDAgMCAxLS43Ni4wNUw2LjQyIDUuNDdsLTIuMiAyLjkyYS41Ni41NiAwIDAgMS0uNDUuMjJIMHYxLjcxYS43NS43NSAwIDAgMCAuNzQuNzVoMTguNTJhLjc1Ljc1IDAgMCAwIC43NC0uNzVWOC42MXoiLz4mI3hhOwk8cGF0aCBjbGFzcz0ic3QxIiBkPSJNMy41IDcuNWwyLjM4LTMuMTZhLjU1LjU1IDAgMCAxIC4zNy0uMjIuNjMuNjMgMCAwIDEgLjQyLjEybDIuMTIgMS43MiAyLjgtMi45NGEuNTQuNTQgMCAwIDEgLjQtLjE3aDBhLjU0LjU0IDAgMCAxIC40LjE3bDQuMzMgNC40OEgyMFYuNzRhLjc0Ljc0IDAgMCAwLS43NC0uNzRILjc0QS43NC43NCAwIDAgMCAwIC43NHY2LjgxeiIvPiYjeGE7CTxyZWN0IGNsYXNzPSJzdDAiIHg9IjYuNjciIHk9IjEyLjkyIiB3aWR0aD0iNi42NyIgaGVpZ2h0PSIuNjEiIHJ4PSIuMyIvPiYjeGE7PC9zdmc+;" parent="1" vertex="1">
          <mxGeometry x="550" y="598" width="42" height="29" as="geometry" />
        </mxCell>
      </root>
    </mxGraphModel>
  </diagram>
</mxfile>
